<svg width="62" height="56" viewBox="0 0 62 56" fill="none" xmlns="http://www.w3.org/2000/svg">
<path fill-rule="evenodd" clip-rule="evenodd" d="M0.802979 23.1019L1.53497 30.2979L8.22797 34.067L8.43799 41.1799L15.133 42.6409L17.851 45.991L25.384 42.0159L26.845 47.2469L31.6559 54.3599L39.1899 55.1959L41.49 50.174L51.534 49.754L58.191 44.8029L57.108 37.4069L57.074 37.1699L57.274 37.0309L61.541 34.077L55.402 23.1619L55.3619 23.0889L55.3539 23.004L54.715 15.991L49.316 20.1229L49.006 20.3569L48.772 20.0519L43.8619 13.741L43.7499 13.5919L43.79 13.418L45.502 5.88196L42.74 2.73596L34.376 2.48895L34.373 2.60193L34.075 2.65894L28.813 3.71191L28.639 3.74695L28.496 3.63495L24.155 0.222961L23.865 3.71191L23.855 3.81091L23.8019 3.89795L19.592 10.2089L19.464 10.403L19.231 10.379L11.595 9.68695L5.48096 11.7239L3.01794 15.1129L6.81396 17.0139L6.98096 17.0939L7.021 17.27L8.07196 21.83L8.16998 22.2529L7.73596 22.3069L0.802979 23.1019Z" fill="#3CB371"/>
</svg>
