<svg width="31" height="42" viewBox="0 0 31 42" fill="none" xmlns="http://www.w3.org/2000/svg">
<path fill-rule="evenodd" clip-rule="evenodd" d="M4.62668 0.233948L1.60577 3.98593L0.142578 6.28693L0.770775 9.42493L3.90717 10.89L3.48888 15.7019L11.438 20.722L11.648 29.9259L17.888 41.7849L26.544 33.0159L25.77 29.1499L25.743 29.006L25.818 28.8759L27.172 26.567L27.291 26.3649L27.523 26.377L30.205 26.4939L30.11 24.9319L28.628 23.821L28.323 23.5909L28.547 23.2809L30.232 20.9429V16.6079L24.469 10.7019L18.762 9.50494L18.69 9.49094L18.626 9.44894L14.561 6.73593L14.444 6.65695L14.406 6.52094L13.391 3.09094L11.331 2.74796L9.28098 3.90094L9.04697 4.03394L8.83797 3.85693L4.62668 0.233948Z" fill="#3CB371"/>
</svg>
