<svg width="168" height="200" viewBox="0 0 168 200" fill="none" xmlns="http://www.w3.org/2000/svg">
<path fill-rule="evenodd" clip-rule="evenodd" d="M160.583 138.962L158.533 116.314L152.253 112.757L167.113 102.505L165.023 95.6028L137.403 93.2998L134.063 97.6942L126.523 98.3208L125.693 104.178L119.623 103.762V95.6028L126.523 93.2998L129.253 87.6537L127.783 72.8007L125.063 71.7557L121.713 73.8472L121.503 68.4079L115.023 70.916L110.633 65.8982L112.303 57.7392L117.743 62.5503L120.873 60.039L125.483 65.06L128.203 58.7841L127.573 51.2534L132.593 47.0689L141.383 47.9071L156.023 36.8202L152.463 32.6357L159.793 33.6807L159.583 26.5698L151.633 28.0346L149.323 23.0136L138.663 20.9206L142.843 15.6912L137.403 11.7167L142.423 8.16054L136.153 0L118.373 10.4619L117.323 19.0375L112.513 25.3134L124.433 30.1244L117.953 33.054L98.703 27.8247L76.323 42.6762L42.853 60.8771L33.853 75.5203L34.693 79.9131L28.6229 81.5862L20.053 89.3269L26.1129 96.8576L31.553 95.1845L39.713 99.7869L38.8729 107.946L31.343 108.781L26.323 111.709L15.653 105.017V118.613L4.77295 126.774L0.583008 134.906L18.6329 148.449L18.793 148.568V148.76V156.919V157.062L18.703 157.174L5.15295 173.027L8.50293 181.692L14.9829 184.508H23.653H23.8929L24.0029 184.733L27.413 191.831L33.033 192.675L33.223 192.704L33.313 192.869L36.923 199.256L44.463 195.626L44.603 195.558L44.7529 195.605L51.833 197.868L57.203 193.063L57.303 192.973L57.433 192.964L65.7429 192.39L71.903 185.941L70.7729 179.723L70.713 179.388L71.043 179.284L77.2529 177.306L78.943 171.386L79.0129 171.134L79.283 171.106L84.563 170.548L86.2329 165.54L86.303 165.333L86.5129 165.285L96.2629 162.991L98.803 158.479L98.903 158.294L99.1129 158.28L113.683 157.405L113.973 157.389L114.073 157.661L117.443 166.932L127.583 163.834L127.643 163.815L127.713 163.817L138.793 164.102L147.733 138.431L147.883 138.005L148.283 138.215L153.683 141.055L160.583 138.962Z" fill="#3CB371"/>
</svg>
