<svg width="213" height="229" viewBox="0 0 213 229" fill="none" xmlns="http://www.w3.org/2000/svg">
<path fill-rule="evenodd" clip-rule="evenodd" d="M105.98 0.905945L103.451 3.71494L103.365 3.80994L103.24 3.83694L97.227 5.10095L91.7809 7.52493L92.082 13.5679L93.653 17.6469L93.712 17.8009L93.6429 17.9479L90.547 24.7639L93.621 29.6819L93.671 29.7639L93.679 29.8539L94.313 37.1759L94.323 37.2889L94.2729 37.3879L89.494 46.6239L89.444 46.7229L89.355 46.778L81.4009 51.6749L84.3879 56.7569L84.52 56.9779L84.366 57.1849L80.981 61.8089L82.778 67.7939L89.582 69.9599L89.799 70.0269L89.848 70.248L90.803 74.7079L90.847 74.907L90.707 75.0559L85.707 80.3649L85.423 84.0529L88.614 84.9219L88.813 84.9749L88.8799 85.1729L90.473 89.9519L90.55 90.1779L90.379 90.3479L86.6299 94.0979L85.063 99.7279L84.928 100.22L84.4919 99.9639L77.489 95.8229L77.386 95.7599L77.332 95.6479L73.9919 88.3609L67.533 91.295L66.607 97.4529L66.593 97.5739L66.511 97.6589L52.297 113.139L52.921 120.291L52.9449 120.575L52.68 120.683L48.86 122.276L48.515 122.42L48.356 122.082L42.895 110.249L39.1479 115.147L39.037 115.294L38.8539 115.299L24.1089 115.931L18.272 126.68L24.838 136.996L24.926 137.132L24.891 137.289L23.6169 143.018L23.559 143.284L23.293 143.32L16.8019 144.246L13.1119 151.318L11.844 170.348L11.817 170.748L11.416 170.708L5.15295 170.082L0.698975 172.157V175.88L11.418 185.48L27.519 196.709L34.007 196.286L34.338 196.269L34.412 196.592L34.6639 197.682L38.822 197.781L46.196 192.515L46.509 192.289L46.736 192.6L51.4059 198.969L65.564 210.171H72.482H72.671L72.787 210.32L78.1299 217.159L78.197 217.245L78.207 217.356L78.819 222.622L86.228 224.063L86.47 224.111L86.529 224.35L87.4969 228.215L93.956 226.063L95.248 221.63H88.4999H88.259L88.1509 221.404L86.6559 218.199L86.507 217.885L86.808 217.705L90.0129 215.779L90.081 215.739L90.158 215.729L94.554 215.099L103.386 209L106.546 204.152L106.573 204.112L106.613 204.077L113.158 198.166L114.62 193.778L114.634 193.738L114.657 193.706L118.5 187.081L118.51 187.066L123.186 179.842L127.225 168.779L130.246 159.899L127.085 152.472L127.05 152.376L127.06 152.277L127.883 144.323L127.893 144.207L127.973 144.111L132.109 139.201L127.196 135.064L127.088 134.97L127.064 134.835L126.241 130.172L126.169 129.766L126.579 129.718L135.077 128.656L136.116 123.718L136.206 123.282L136.626 123.431L141.163 125.034L149.092 122.393L151.217 117.343L151.384 116.952L151.758 117.154L155.787 119.296H159.806H160L160.115 119.46L162.974 123.357L179.776 118.825L181.634 111.642L181.725 111.301L182.071 111.354L185.43 111.867L189.674 107.092L190.264 106.43L190.354 107.313L190.871 112.498L201.112 114.072L207.135 109.882L207.394 102.063L200.985 97.5209L200.827 97.4139L200.819 97.2269L200.269 87.3559L200.259 87.1519L200.423 87.0269L203.987 84.2849L204.086 84.2079L204.211 84.2039L212.957 83.9489L204.739 65.3139L200.327 62.2569L192.594 65.7719L192.203 65.9529L192.068 65.5379L189.241 57.0629L176.89 52.1259L170.713 53.1509L161.067 73.8749L161.045 73.92L161.01 73.9599L154.524 81.5299L154.248 81.8489L153.947 81.5529L149.266 76.8719L146.278 82.1859L146.171 82.3749L145.95 82.3849L137.065 82.7399L131.032 87.3539L130.754 87.5659L130.515 87.3099L124.744 81.1839L124.628 81.058L124.641 80.8909L125.721 65.0299L125.726 64.9669L125.755 64.903L130.989 52.6879L124.197 50.653L124.027 50.5999L123.955 50.4359L120.715 43.2309L120.662 43.1089L120.689 42.9789L123.146 32.8109L117.633 29.713L117.426 29.5959L117.436 29.3589L117.796 19.368L113.723 11.5629L110.479 13.8309L110.367 13.9129L110.232 13.903L105.546 13.5419L105.181 13.515V13.1499V8.10495V7.89294L105.365 7.78094L108.998 5.46796L105.98 0.905945ZM68.15 193.605L67.416 189.752L67.3539 189.411L67.6819 189.307L71.413 188.129L69.803 182.492L69.7029 182.151L70.041 182.024L74.502 180.35L74.83 180.225L74.989 180.539L78.463 187.489L87.127 182.331L87.433 182.151L87.64 182.44L90.632 186.629L90.637 186.634L93.204 188.983L96.5519 187.728L96.624 187.701H96.688H101.32H101.531L101.648 187.885L103.948 191.53L104.097 191.76L103.927 191.977L94.925 203.431L94.699 203.724L94.3979 203.512L88.928 199.665L82.226 200.296L82.0959 200.309L81.9839 200.237L78.055 197.757L78.032 197.743L73.336 194.326L68.501 193.921L68.2079 193.898L68.15 193.605Z" fill="#3CB371"/>
</svg>
