<svg width="59" height="63" viewBox="0 0 59 63" fill="none" xmlns="http://www.w3.org/2000/svg">
<path fill-rule="evenodd" clip-rule="evenodd" d="M31.134 62.8099L37.66 62.95L43.899 60.0729L39.774 54.2889L39.517 53.9299L39.91 53.7169L43.516 51.808L46.901 49.0229L44.229 42.653L44.136 42.4379L44.29 42.2569L46.43 39.6879L46.763 39.2869L47.053 39.718L49.013 42.657L51.515 41.5689L51.611 41.5229L51.712 41.5369L56.403 42.0599L55.358 37.3559L55.334 37.2469L55.367 37.149L58.217 28.886L55.398 23.8089L55.329 23.6769L55.358 23.5379L57.657 12.6079L55.457 6.83093L51.329 6.27594L51.055 6.24094L50.997 5.96994L49.896 0.735931L46.994 0.496948L45.934 3.40894L45.83 3.69794L45.526 3.66595L35.237 2.55493L35.474 5.83594L40.093 6.37994L40.405 6.41595L40.434 6.72995L40.724 9.92694L40.74 10.0939L40.628 10.2189L35.397 16.0349L35.282 16.1609H35.105H26.911L25.28 19.153L25.18 19.334L24.977 19.3549L19.456 19.937L19.211 19.9639L19.082 19.7529L16.7586 15.9769L16.7025 15.881V15.7729V10.7879L12.5693 8.86093L12.3434 8.75693V8.50894V3.24695L9.40568 2.02295L7.83838 4.63794L7.67007 4.91693L7.36718 4.80493L2.96957 3.15695L0.455078 6.04694L3.30138 9.53394L6.27097 8.99594L6.51617 8.94894L6.65887 9.15793L8.61248 11.9479L12.5469 13.0729L12.7376 13.127L12.8065 13.312L14.5373 17.9259L18.592 24.8749L18.664 24.9959L18.638 25.136L17.496 31.9729L21.791 39.7019L21.818 39.7499L21.828 39.7999L23.283 45.9039L23.294 45.9519L23.292 46.0069L23.012 52.2269L29.572 58.791L29.628 58.8489L29.661 58.9299L31.134 62.8099Z" fill="#3CB371"/>
</svg>
