<svg width="93" height="102" viewBox="0 0 93 102" fill="none" xmlns="http://www.w3.org/2000/svg">
<path fill-rule="evenodd" clip-rule="evenodd" d="M72.8839 65.5889L72.3759 62.1559L73.0029 59.2279L70.282 55.4619L72.7939 50.8589L80.532 41.2369L87.019 39.1459L90.7839 32.6599L92.1989 23.2569L90.6769 20.6609L84.0509 17.3499L83.7849 17.2149L83.8449 16.9239L85.1039 10.6249L77.5269 0.522934L68.6099 11.7409L64.0089 11.5309L58.1499 15.5069L53.9669 15.2969L52.2919 19.4799L50.4109 23.0359L47.0639 25.5469L48.9439 29.1039L46.6459 31.4049L38.9039 30.1489L36.8119 37.4709L35.3479 48.5579L30.7449 50.4409L10.2459 47.7209L0.991943 48.0639L1.26894 54.0359L6.28394 53.0399L6.34694 53.0309L6.41194 53.0399L12.9879 53.9599L13.1529 53.9839L13.2509 54.1209L15.8809 57.8099L15.9539 57.9159L15.9529 58.0469L15.8199 62.6579L15.8179 62.7959L15.7269 62.9009L13.4609 65.5489L13.7149 70.6679L13.7199 70.7059L13.7139 70.7399L13.0569 75.2209L13.0339 75.3759L12.9079 75.4719L9.57594 78.0399L8.62193 80.5479L9.91693 83.2579L11.6539 83.6459L11.8849 80.0159L11.9039 79.7429L12.1669 79.6659L14.4029 79.0079L14.6929 78.9229L14.8469 79.1859L16.2089 81.5449L17.3279 81.8029L17.6739 78.6809L17.7079 78.3649L18.0249 78.3349L20.7879 78.0719L21.1039 78.0429L21.1959 78.3469L22.8379 83.7849L26.1529 84.4009L26.3009 84.4279L26.3909 84.5459L31.6119 91.3619L32.3919 89.2119L31.8719 82.7049L31.8639 82.5979L31.9149 82.4969L34.2829 77.8859L34.3079 77.8389L34.3439 77.8009L42.8909 68.5779L43.0469 68.4079L43.2649 68.4609L48.2619 69.6469L48.4299 69.6849L48.5129 69.8409L50.0899 72.7379L50.1539 72.8549L50.1329 72.9849L49.3429 77.9899L49.3219 78.1209L49.2309 78.2129L45.5529 81.7629L39.3209 88.7949L37.6409 94.7969L41.7919 94.7489L42.1859 94.7419V95.1369V100.549L45.5579 101.672L47.976 99.0129L48.0919 98.8849H48.2649H51.3129L52.5409 93.2419L52.5609 93.1349L52.6399 93.0549L58.3839 87.0609L56.9849 84.7269L56.9809 84.7229L55.1689 81.6179L55.0889 81.4769L55.1319 81.3199L56.4249 76.6629L56.4559 76.5619L56.5249 76.4899L62.1289 70.8839L62.6259 67.9059L62.696 67.4829L63.1099 67.5939L66.9669 68.6229L69.3419 69.0969L72.2979 65.8949L72.3469 65.8409L72.4179 65.8069L72.8839 65.5889Z" fill="#3CB371"/>
<path fill-rule="evenodd" clip-rule="evenodd" d="M81.8459 51.0829L83.4559 52.8539L85.6409 51.3959L85.0159 48.8439L83.3539 47.5939L82.0539 49.3639L81.8459 51.0829Z" fill="#3CB371"/>
</svg>
