<svg width="68" height="41" viewBox="0 0 68 41" fill="none" xmlns="http://www.w3.org/2000/svg">
<path fill-rule="evenodd" clip-rule="evenodd" d="M0.882935 10.5849L7.59593 14.1559L11.0559 12.9999L11.2729 12.9279L11.4389 13.08L13.8539 15.252L13.9729 15.3609L13.9829 15.5209L14.2119 19.6509L18.8529 22.2039L19.0759 22.3259L19.0529 22.5759L18.1989 32.7809L32.0409 32.8969L33.7409 31.7639L33.8439 31.6949L33.9669 31.6979L38.5199 31.8199L38.7899 31.8259L38.8789 32.0759L40.1409 35.636L43.8189 37.2449L43.8889 37.2749L43.9399 37.3289L47.0799 40.5219L52.1939 35.3129L52.3109 35.1949L52.4779 35.196L64.8949 35.4319L65.1219 27.6059L65.127 27.4619L65.2249 27.3529L67.6299 24.7299L64.9089 22.0099L58.3619 23.6459L58.2099 23.6859L58.0719 23.6049L48.17 17.8099L48.0779 17.7549L48.0259 17.6589L42.0399 6.64594L33.0359 1.19495L19.2599 0.481934L14.5399 3.78693L14.4489 3.85193L14.3369 3.85895L8.98393 4.08994L7.40193 6.57495L7.35294 6.65094L7.27594 6.69894L0.882935 10.5849Z" fill="#3CB371"/>
</svg>
