<svg width="50" height="63" viewBox="0 0 50 63" fill="none" xmlns="http://www.w3.org/2000/svg">
<path fill-rule="evenodd" clip-rule="evenodd" d="M2.63931 7.06393L3.05921 14.386L0.757812 17.1039L1.80441 20.2419L5.15061 22.7539L4.94231 27.9829L6.82541 36.3519L6.19711 44.088L4.73241 56.8489L6.40711 59.1539L9.75341 57.6879L11.9522 61.3739L21.898 57.9259L22.1689 57.8319L22.3371 58.0609L25.4318 62.2839L30.5137 62.8189L34.1709 55.506L34.2382 55.3719L34.3744 55.317L38.2864 53.7499L36.8072 51.5349L36.679 51.343L36.7896 51.1349L38.9692 47.0479L36.5828 44.9279L36.2735 44.6539L36.5684 44.36L39.3794 41.5479L39.6535 39.0719L39.6775 38.8499L39.881 38.7589L43.0767 37.3059L43.3988 37.1579L43.5735 37.4669L45.6713 41.136L48.3781 38.9209L48.657 34.1479L48.6634 34.0729L48.7003 33.9959L49.75 31.8969L44.9678 25.9859L44.8059 25.7889L44.9213 25.5629L48.5833 18.5229L43.9197 12.7659H39.7464H39.506L39.4003 12.5499L36.8617 7.53494L29.2076 0.57193L28.1611 10.614L23.9798 8.52094L16.0276 8.93893L13.0996 12.7069L7.24211 2.87595L2.63931 7.06393Z" fill="#3CB371"/>
</svg>
