<svg width="34" height="33" viewBox="0 0 34 33" fill="none" xmlns="http://www.w3.org/2000/svg">
<path fill-rule="evenodd" clip-rule="evenodd" d="M14.168 0.530945L6.40799 6.82095L5.01498 9.27994L4.89998 9.48895L4.66199 9.47693L0.59198 9.27994L0.820984 12.3929L3.35298 15.8199L7.64198 16.0789L7.85498 16.0919L7.95699 16.278L9.17499 18.4469L9.22699 18.5379V18.6369V21.1079L11.849 22.3569L12.033 22.4429L12.065 22.6499L12.719 26.8389L19.583 32.1649L22.916 30.6249L23.803 28.5589L23.28 25.2209L22.314 23.1839L22.227 23.0029L22.328 22.8269L23.755 20.304L23.819 20.1929L23.931 20.1419L29.796 17.4259L33.252 14.2859L33.356 10.4609L32.532 7.89493L29.442 5.44394L29.36 5.37595L29.32 5.27594L28.309 2.54193L25.367 2.24594L20.748 4.39795L20.65 4.43994L20.544 4.42993L17.254 4.09995L17.094 4.08395L16.991 3.95993L14.168 0.530945Z" fill="#3CB371"/>
</svg>
