<svg width="123" height="156" viewBox="0 0 123 156" fill="none" xmlns="http://www.w3.org/2000/svg">
<path fill-rule="evenodd" clip-rule="evenodd" d="M55.583 155.957L61.173 152.266L64.943 149.127L70.173 147.872L68.5029 137.203L77.703 134.274L84.813 127.998L91.303 127.788L86.4929 134.694L91.093 138.668L97.793 131.136L99.463 119.214L105.523 116.911L110.343 110.635L105.323 106.871L100.923 112.31L96.323 107.915L95.073 86.3699L91.093 73.61L92.343 64.1939L100.093 53.1069L104.483 52.8989L106.573 46.6229L115.573 58.9669L121.853 57.9199L122.263 53.3169L120.803 43.9019L119.213 37.2739L113.173 33.8659L113.013 33.7769L112.973 33.5999L111.823 27.5579L107.933 23.9459L101.643 24.5169L101.353 24.5439L101.243 24.2679L97.5029 14.4809L92.1329 13.3529L91.9829 13.3189L91.8929 13.1909L83.283 0.67894L77.203 7.03694L77.093 7.14694L76.943 7.15694L68.6329 7.73094L63.193 12.5949L63.0229 12.7439L62.813 12.6749L55.673 10.3909L47.943 14.1159L47.6129 14.2709L47.433 13.9519L43.7429 7.41794L38.823 6.67894L42.0029 13.3049L42.103 13.5079L41.973 13.6909L38.193 19.2299L38.1229 19.3259L38.0129 19.3689L33.1229 21.3839L22.663 30.9939L27.093 36.2459L27.323 36.5299L27.053 36.7819L22.923 40.6359L26.2429 45.6069L26.303 45.6949V45.8039L26.593 51.7639L32.0029 56.6089L32.153 56.7369L32.1329 56.9329L31.2529 66.5499L31.2429 66.6799L31.163 66.7759L26.203 72.3129L26.103 72.4249L25.963 72.4409L17.6329 73.3019L8.62292 81.7539L12.2729 88.7769L12.423 89.08L12.153 89.2769L2.36292 96.1809L0.973022 103.191L15.1429 132.602L21.683 128.245L21.843 128.139L22.0229 128.201L36.823 133.138L37.043 133.21L37.093 133.429L38.7329 141.655L38.7629 141.793L38.693 141.918L35.173 148.322L37.833 153.646L43.713 149.314L43.823 149.239H43.943H51.5129H51.7429L51.843 149.435L55.583 155.957Z" fill="#3CB371"/>
</svg>
