<svg width="36" height="48" viewBox="0 0 36 48" fill="none" xmlns="http://www.w3.org/2000/svg">
<path fill-rule="evenodd" clip-rule="evenodd" d="M0.315979 10.7669L0.939987 14.8129L3.14299 18.2759L6.23799 19.985L6.44199 20.0939V20.3259V27.1239V27.2459L6.37099 27.347L4.39699 30.1979L4.37898 30.2209L3.21599 31.6729L4.48799 34.3109L7.57298 36.2269L7.73299 36.3269L7.75299 36.519L8.30199 42.0049L8.31998 42.1889L8.18999 42.3189L5.67099 44.838V47.226L9.18098 47.0349L10.61 45.709L10.801 45.5289L11.036 45.636L13.107 46.5689L16.399 45.7449L17.54 44.8129L17.767 44.6249L18.008 44.7929L20.195 46.3259L21.923 47.476L23.562 46.0269L23.679 45.9249L23.835 45.9299L28.987 46.14L30.928 43.183L32.252 39.4129L31.015 38.269L30.987 38.2449L30.968 38.2239L28.667 35.2629L28.625 35.2099L28.603 35.1419L26.74 29.4399L26.699 29.3189L26.74 29.2L28.055 25.1419L28.08 25.0649L28.13 25.006L32.409 20.071L32.427 20.0509L32.439 20.0379L35.089 17.6029L35.683 14.6189L32.305 10.6259L24.263 10.7339H24.146L24.048 10.6719L15.163 4.96796L14.972 4.84494L14.987 4.61893L15.189 1.25293L14.134 0.725952L13.237 1.62695L13.145 1.71796L13.014 1.73593L5.41798 2.78995L5.33899 3.47595L5.32799 3.57693L5.27298 3.65594L0.315979 10.7669Z" fill="#3CB371"/>
</svg>
