<svg width="88" height="93" viewBox="0 0 88 93" fill="none" xmlns="http://www.w3.org/2000/svg">
<path d="M80.137 22.6319L80.029 22.618L79.944 22.549L68.038 12.7809L63.769 15.14L63.658 15.1989L63.537 15.1849L51.809 13.8519L51.821 13.7709L43.997 9.70895L43.933 9.67795L43.884 9.62094L36.689 1.50793L27.353 0.618927L24.591 7.44293L31.188 16.1609L31.257 16.2539L31.261 16.3719L31.654 22.5999L31.67 22.8739L31.414 22.9799L20.562 27.5509V31.2059L23.542 33.812L23.812 34.0459L20.404 38.6059L20.394 38.575L17.431 41.9049L13.429 52.2139L13.402 52.2839L13.352 52.3389L9.98297 55.9439L7.81497 61.6109L7.78796 61.679L7.73996 61.7359L4.07797 65.7599L3.95096 65.9009L3.75998 65.8919L0.630981 65.6759L0.521973 73.399L4.02298 73.291L4.42398 73.2769V79.4119L12.105 79.7589L12.45 79.7769L12.479 80.1199L12.823 84.4739L16.086 85.2639L16.322 85.3219L16.373 85.5559L16.862 87.756L16.87 87.7799L17.344 90.8589L18.472 92.4019L21.392 91.6409L27.857 83.9949L27.957 83.8719L28.115 83.8589L35.438 83.0899L40.079 75.7339L40.358 75.2979L40.699 75.6809L44.036 79.3909L46.985 77.4799L48.137 72.3009L48.203 72.0069L48.496 71.9949L56.626 71.6069L58.817 68.8709L59.397 63.2489L59.411 63.127L59.492 63.0359L63.073 58.8879L60.429 53.7839L60.379 53.6879L60.384 53.5849L60.581 49.4349L60.594 49.1969L60.811 49.0979L69.449 45.1729L79.457 35.3559L86.138 26.5139L87.388 23.6499L80.137 22.6319Z" fill="#3CB371"/>
</svg>
