<svg width="43" height="58" viewBox="0 0 43 58" fill="none" xmlns="http://www.w3.org/2000/svg">
<path fill-rule="evenodd" clip-rule="evenodd" d="M39.5299 0.346939L35.4799 0.806946L28.9939 5.82794L25.2289 11.0589L17.9069 10.6389L13.5159 17.9619L8.28494 18.5899L8.07494 24.2359L0.335938 29.2569L0.753937 36.5789L3.89194 40.5539L0.335938 44.9479L1.17393 48.5039L6.19194 49.7589L7.23795 54.9889L5.65694 57.8119L5.98494 57.8619L9.30394 57.0059L9.44994 56.9679L9.58093 57.0369L11.3249 57.9599L17.7389 56.7239L20.2689 52.8109L21.7019 46.8419L21.7289 46.7299L21.8049 46.6569L25.8349 42.6229L26.5339 40.0679L26.6059 39.8089L26.8749 39.7829L29.2219 39.5709L29.6619 36.2569L29.6939 36.0119L29.9269 35.9369L37.1389 33.6109L36.9049 24.0019L36.9029 23.9269L36.9289 23.8539L38.1369 20.7119L38.1749 20.6139L38.2559 20.5479L40.5789 18.6889L42.9049 11.4869L39.8579 6.56694L39.8049 6.48195L39.8009 6.38094L39.5299 0.346939Z" fill="#3CB371"/>
</svg>
