<svg width="28" height="29" viewBox="0 0 28 29" fill="none" xmlns="http://www.w3.org/2000/svg">
<path fill-rule="evenodd" clip-rule="evenodd" d="M0.335007 4.26294L0.125 10.8669L1.808 14.545L5.369 17.7859L5.519 17.924L5.491 18.1239L4.636 24.8659L7.5 28.3439L10.524 28.6449L15.145 26.4949L15.239 26.4509L15.348 26.463L18.273 26.7539L18.544 25.0349L18.56 24.9379L18.613 24.8629L20.698 22.011L20.711 21.9959L20.725 21.9769L24.902 17.4809V14.674V14.5119L25.014 14.3979L27.515 11.8949L27.004 6.78595L23.986 4.91193L23.89 4.85294L23.841 4.75195L22.528 2.02295L16.153 2.32996L14.621 4.17194L14.404 4.43094L14.118 4.25693L8.571 0.882935L7.02 0.397949L0.335007 4.26294Z" fill="#3CB371"/>
</svg>
