<svg width="99" height="78" viewBox="0 0 99 78" fill="none" xmlns="http://www.w3.org/2000/svg">
<path fill-rule="evenodd" clip-rule="evenodd" d="M22.011 69.3149L27.883 69.2059L32.693 77.3669L36.577 77.9809L36.696 77.8489L37.975 74.437L38.01 74.3479L38.074 74.2879L44.946 67.8439L46.01 62.9559L46.031 62.8549L46.1 62.778L50.238 58.2109L50.385 58.0439L50.6 58.0909L55.78 59.1239L57.124 57.0139L57.955 53.278L56.53 49.4169L52.126 47.7379L51.945 47.666L51.892 47.4769L51.236 45.0809L51.184 44.8879L51.312 44.7309L53.413 42.2099L54.054 35.7999L54.07 35.6619L54.171 35.5629L61.57 28.3839L61.846 28.114L62.117 28.3839L66.25 32.5209L66.481 32.748L66.293 33.019L64.03 36.2229L66.917 36.765L67 36.7769L67.069 36.8269L74.559 42.1779L80.281 41.3289L80.411 41.3099L80.526 41.377L85.885 44.3749L91.102 44.5869L98.164 39.7419L85.544 30.2769L85.468 30.2189L85.427 30.1429L79.335 18.174L79.327 18.157L74.835 8.10495L71.325 7.27795L71.301 7.27295L71.266 7.25995L63.868 4.21393L63.801 4.18695L63.748 4.13693L60.04 0.620941L58.94 3.55493L58.841 3.81595L58.562 3.80795L52.655 3.59695L51.252 5.19894L51.206 5.25195L51.144 5.28693L47.443 7.24594L47.318 7.30795L47.18 7.28293L44.312 6.66595L42.494 8.07895L42.39 8.15894H42.255H38.557H38.48L38.403 8.12894L33.731 6.09393L31.721 9.91095L31.635 10.0779L31.451 10.1129L24.828 11.4099L20.567 18.7699L20.452 18.972L20.218 18.963L8.41797 18.575L5.20297 25.3759L5.39798 32.006L5.40796 32.308L5.11096 32.394L1.97498 33.2659L0.896973 38.519L3.58096 44.7309L3.58896 44.752L3.59998 44.7889L4.69296 48.8879L9.65997 50.4059L9.74496 50.433L9.80698 50.4909L14.408 54.6589L14.53 54.7719L14.536 54.9349L14.673 59.2239L21.449 65.1469L21.561 65.2459L21.578 65.399L22.008 69.2789L22.011 69.3069V69.3149Z" fill="#3CB371"/>
</svg>
