<svg width="75" height="55" viewBox="0 0 75 55" fill="none" xmlns="http://www.w3.org/2000/svg">
<path fill-rule="evenodd" clip-rule="evenodd" d="M55.2069 54.0309L61.1239 51.3529L60.3079 48.5809L60.2829 48.4919L60.2999 48.403L62.1189 38.3799L62.1839 38.0379L62.5299 38.0589L67.6419 38.4139L74.1209 32.1089L73.2719 24.6279L66.9429 24.6679L66.9019 25.0779L66.3329 24.5719L59.3549 18.3549L55.1749 18.61L55.0249 18.618L54.9079 18.5219L49.9089 14.4369L49.8109 14.3549L49.7779 14.2249L48.8909 10.5489L45.1699 7.89995L43.8059 8.94894L43.1759 12.3599L43.1139 12.7089L42.7609 12.6789L33.5579 11.8889L33.4309 11.8789L33.3319 11.7919L30.2459 9.08694L21.2619 6.73795L21.1899 6.71994L21.1309 6.67694L16.3979 3.25194L16.3759 3.23595L16.3519 3.20995L13.8499 0.701935L11.4249 3.12694L10.0039 9.05295L9.98795 9.12094L9.95193 9.17494L7.29193 13.2799L7.20393 13.4189L7.04193 13.4509L0.804932 14.6559L2.36694 18.368L7.68994 28.36L11.6019 31.2149L20.1769 32.735L20.4589 32.7849L20.4979 33.067L21.0309 37.0179L24.4689 41.2079L24.5759 41.3369L24.5589 41.4969L24.5039 41.9859L31.7739 40.9779L32.7789 39.9729L32.9769 39.7759L33.2289 39.9009L34.7629 40.6679L34.9929 40.782L34.9789 41.0399L34.7719 44.433L43.3669 49.9489L51.4759 49.8419L51.6609 49.8389L51.7779 49.9799L55.2069 54.0309Z" fill="#3CB371"/>
</svg>
