<svg width="43" height="43" viewBox="0 0 43 43" fill="none" xmlns="http://www.w3.org/2000/svg">
<path fill-rule="evenodd" clip-rule="evenodd" d="M0.476929 26.321L1.21695 28.653L3.65894 32.6149L9.46295 33.7749L14.7089 30.9129L14.9259 30.7959L15.1259 30.9449L16.5909 32.0429L16.8629 32.2449L16.7 32.5429L15.062 35.468L15.338 36.761L18.1129 37.093L18.5159 37.1419L18.4529 37.5379L18.2099 39.1259L18.1859 39.2849L18.0559 39.3799L15.2159 41.4529L16.1949 42.61L18.4599 42.9489H22.0689L25.7369 39.6279L25.8589 31.2489L25.8649 30.8359L26.2709 30.868L29.6229 31.0989L33.1109 27.2619L35.2839 21.5949L35.3099 21.5229L35.3609 21.4699L38.7279 17.86L42.6239 7.82693L40.6539 6.29694L40.6289 6.27396L40.601 6.24393L38.3029 3.59894L35.2279 4.17294L35.0359 4.20795L34.8909 4.07193L30.8459 0.263947L24.5429 0.0419312L24.437 2.21994V2.25195L24.0699 5.30295L24.0529 5.45496L23.9339 5.55493L19.4159 9.33795L19.2269 9.49695L19.0009 9.38995L15.4079 7.71494L12.6199 7.49893L9.77792 17.8109L9.71094 18.0529L9.45892 18.0889L3.33392 19.0339L0.476929 26.321Z" fill="#3CB371"/>
</svg>
