<svg width="93" height="70" viewBox="0 0 93 70" fill="none" xmlns="http://www.w3.org/2000/svg">
<path fill-rule="evenodd" clip-rule="evenodd" d="M0.925964 7.88196L11.032 56.3839L16.468 55.5469L20.236 50.1089L23.792 51.5729L24.839 57.2219L36.342 63.5009L45.338 60.1509L50.149 62.244L53.5909 69.3519L60.223 68.588L59.309 64.6309L55.264 62.6049L54.8539 62.4009L55.123 62.028L57.931 58.1719L58.002 58.0709L58.123 58.033L64.436 55.9299L64.5129 55.903L64.595 55.9109L72.076 56.59L76.102 50.5519L76.4449 46.4459L76.504 45.7209L77.073 46.1699L81.8409 49.9149L86.631 48.9589L86.9659 41.8989L86.975 41.697L87.147 41.59L90.871 39.2159L92.187 33.955L89.1689 30.6019L88.942 30.351L89.163 30.0939L92.746 25.8539L88.181 22.5939L88.08 22.5219L88.04 22.4059L86.313 17.5729L81.107 12.0229L81.02 11.9269L81.004 11.8019L80.352 6.58093L76.723 7.04395L72.0259 11.3149L71.8979 11.4279L71.728 11.4109L62.741 10.5549L60.034 12.6379L59.793 12.8239L59.556 12.6379L56.779 10.4559L48.9709 18.049L48.7 18.3129L48.431 18.049L42.339 12.1749L42.251 12.095L42.2289 11.986L41.1559 7.49597L36.1559 0.82196L15.534 7.91193L15.393 7.96393L15.256 7.90295L10.883 6.02594L8.88397 7.42694L8.67096 7.57391L8.45496 7.43994L5.17297 5.38794L0.925964 7.88196Z" fill="#CDCDCD"/>
</svg>
