<svg width="165" height="115" viewBox="0 0 165 115" fill="none" xmlns="http://www.w3.org/2000/svg">
<path fill-rule="evenodd" clip-rule="evenodd" d="M39.855 76.4849L54.111 69.158L64.991 72.921L78.168 70.832L97.415 89.8669L121.263 114.55L130.673 110.789L136.533 113.507L140.723 111.412L148.673 113.925L152.973 113.363L160.513 101.875L151.363 89.192L139.913 83.4719L139.693 83.3589V83.1199V75.9139V75.783L139.773 75.679L143.913 70.153L141.223 66.783L141.023 66.5289L141.223 66.2859L147.643 58.8019L148.713 52.7789L148.733 52.6619L148.803 52.58L152.953 48.085L150.183 42.1969L149.963 41.7289L150.473 41.6469L161.523 39.8649L164.153 37.2369L159.973 24.36L155.803 23.7169L153.773 27.7839L153.663 28.0039H153.413H146.883L145.513 33.83L145.483 33.9469L145.393 34.0269L136.383 42.3189L136.273 42.4079L136.143 42.4179L130.373 42.782L130.153 42.7959L130.023 42.6069L125.093 35.2109H114.133H113.763L113.743 34.8419L113.383 28.7169L113.363 28.472L113.573 28.3569L118.403 25.597L117.703 19.002L117.693 18.8949L117.743 18.7999L124.123 4.97794L120.173 0.701935L93.652 14.4939L94.327 18.5389L94.381 18.8549L94.08 18.9669L88.314 21.127L88.207 21.1689L88.099 21.1449L83.173 20.0919L65.994 27.9639L65.7679 28.0679L65.584 27.9109L61.43 24.4489L49.0259 29.0589L48.817 29.1339L48.6509 28.9989L42.259 24.0309L32.4659 23.683L28.257 27.8889L27.996 28.153L27.722 27.8969L23.292 23.8149L20.313 26.4619L20.0649 26.6819L19.808 26.4699L14.218 21.933L7.25995 24.7149L0.48999 29.1479L9.047 34.8519L9.37799 35.0759L9.15094 35.4049L6.59796 38.9739L10.545 42.9209L17.688 38.9519L18.0259 38.7619L18.22 39.101L21.637 45.15L27.115 43.8489L27.554 43.7419L27.5909 44.2L28.397 54.957L33.977 58.1489L34.347 58.361L34.1039 58.7119L30.9659 63.1539L39.855 76.4849Z" fill="red"/>
</svg>
