<svg width="124" height="77" viewBox="0 0 124 77" fill="none" xmlns="http://www.w3.org/2000/svg">
<path fill-rule="evenodd" clip-rule="evenodd" d="M1.44199 57.9199L4.133 55.9629V51.5629L0.953003 50.8289L1.44199 57.9199Z" fill="#CDCDCD"/>
<path fill-rule="evenodd" clip-rule="evenodd" d="M17.336 76.5059L19.294 57.9189L20.761 50.8269L26.875 44.2229L34.215 41.7769L37.147 37.6179L35.434 32.4819L40.816 35.9079L45.707 35.4179L46.931 31.7489L50.111 31.9949L50.353 28.3249L54.267 29.7929L55.001 26.1239L57.935 29.3039L60.137 26.3689L60.871 21.9649L65.03 24.9009L67.719 22.4559L73.346 23.6789L77.992 18.2999L113.698 17.5649L122.259 12.9189L123.237 6.55794L119.569 2.15694L111.009 4.35594L109.541 7.53694L94.866 6.31393L88.51 0.933945L82.883 4.11194L77.256 1.66794L70.165 6.31393H64.294L61.361 8.75995L57.448 4.60294L55.489 13.1639L51.087 13.4069L50.598 16.8309L39.595 20.2539L35.681 18.5439L33.234 21.4769L36.415 24.6559L32.011 28.8149L24.918 25.8809L23.94 31.2619L18.804 31.0169L18.56 35.1739L11.467 38.8429L7.065 37.3749L2.173 41.0429L1.92999 46.4229L6.57599 51.0709L6.819 58.1639L2.41901 62.5659L5.84201 70.1469L9.755 70.6369L9.99899 74.0619L14.401 75.0389L17.336 76.5059Z" fill="#CDCDCD"/>
</svg>
