<svg width="122" height="118" viewBox="0 0 122 118" fill="none" xmlns="http://www.w3.org/2000/svg">
<path fill-rule="evenodd" clip-rule="evenodd" d="M102.843 22.6809L96.544 28.3689L93.615 22.9299L97.801 22.0929L92.57 12.2609L84.622 13.5159L76.672 10.7959L66.84 12.2609L61.402 25.8589L57.424 23.5579L51.778 10.3779L52.616 0.125946L43.411 1.17393L40.901 9.95995L44.874 14.7719L41.11 19.7919L35.044 16.4439L33.997 9.38394L33.813 9.46895L30.76 12.7789L30.611 12.9409L30.396 12.8969L27.808 12.3809L27.785 12.3749L24.317 11.4489L23.87 14.1299L23.851 14.2559L23.763 14.3429L18.142 19.9649L16.921 24.3619L18.649 27.3269L20.2 29.9089L20.351 30.1619L20.146 30.3769L14.272 36.5069L13.003 42.3499L12.936 42.6579H12.62H9.42896L6.95796 45.3759L6.94197 45.3939L1.60497 51.4919L0.610962 58.9609L14.189 74.3319L18.812 78.6989L23.694 81.7809L23.745 81.8129L23.779 81.8579L28.843 87.679L36.952 87.9319L37.209 87.942L37.305 88.1799L40.517 96.3329L42.989 95.2099L43.127 95.1469L43.272 95.1969L47.93 96.748L48.313 96.8759L48.172 97.2549L46.741 101.067L51.086 103.239L51.302 103.345V103.587V108.047L55.769 107.343L55.988 107.308L56.129 107.481L59.75 111.877L59.828 111.971L59.841 112.09L60.291 117.308L63.862 114.411L64.038 114.265L64.253 114.353L69.74 116.595L73.817 113.478L74.068 107.968L74.077 107.79L74.215 107.681L86.646 97.7869L83.574 91.6419L78.564 93.3139L76.048 96.3309L75.864 96.5529L75.601 96.4439L69.391 93.8549L69.135 93.748L69.154 93.472L69.412 89.3329L69.42 89.2169L69.492 89.1209L74.406 82.653L74.518 82.5069L74.701 82.4989L80.504 82.2569L80.284 79.6419L78.518 76.6159L78.366 76.3559L78.579 76.1449L82.379 72.343L83.614 66.6559L79.298 59.5449L79.17 59.3329L79.305 59.1279L81.375 56.0239L81.608 55.6759L81.936 55.9289L97.721 68.0899L97.831 68.1779L97.863 68.3159L98.826 72.6539L104.713 72.4109L104.831 72.4039L104.937 72.4699L111.207 76.4829L115.664 73.8999L114.438 68.7489L114.404 68.6039L114.474 68.4749L116.176 65.3129L113.457 61.1069L113.304 60.8749L113.474 60.6599L121.321 50.5329L118.218 45.9979L112.183 45.2429L112.005 45.2189L111.905 45.0719L105.178 34.9799L105.138 34.9169L105.122 34.8359L102.843 22.6809Z" fill="red"/>
</svg>
