<svg width="36" height="59" viewBox="0 0 36 59" fill="none" xmlns="http://www.w3.org/2000/svg">
<path fill-rule="evenodd" clip-rule="evenodd" d="M4.90397 56.1389L11.47 58.5299L29.041 58.11L27.576 51.205L31.969 50.368L35.318 31.5399L32.387 27.5659L27.994 26.5229L28.623 22.9659L34.062 17.9439L29.217 11.2099L31.554 9.99493L34.628 8.64093L31.522 3.09894L19.436 0.599945L16.218 2.63095L18.43 8.43695L18.472 8.53995L18.446 8.65295L16.149 19.554L18.986 24.6589L19.072 24.8129L19.015 24.9729L16.143 33.3019L17.282 38.4189L17.399 38.9489L16.859 38.8919L11.732 38.3189L9.02696 39.5039L8.72797 39.6339L8.54797 39.364L6.69698 36.5809L5.04197 38.5729L7.73196 44.9909L7.84297 45.256L7.61996 45.4399L3.98097 48.4379L3.94897 48.4659L3.91697 48.4779L0.667969 50.1979L4.90397 56.1389Z" fill="red"/>
</svg>
