<svg width="68" height="89" viewBox="0 0 68 89" fill="none" xmlns="http://www.w3.org/2000/svg">
<path fill-rule="evenodd" clip-rule="evenodd" d="M32.2769 0.186951L28.4789 3.63095L28.3669 3.72995H28.2179H24.7659L23.9639 8.77493L23.9259 9.00894L23.6979 9.08194L17.5959 11.0349L17.5139 11.062L17.4319 11.054L10.6049 10.243L10.0759 13.9469L12.7489 16.6149L12.8369 16.7019L12.8549 16.8319L13.5869 21.3479L13.6149 21.5049L13.5219 21.6349L12.3019 23.3419L12.0889 23.6379L11.7799 23.4489L7.71494 20.9379L5.15094 20.8289L3.54993 24.3749H3.54895L2.08493 27.6669L1.98093 27.8999H1.72995H0.653931V38.86L3.02295 42.179L3.09995 42.2809L3.09494 42.4109L2.85495 50.929L4.82794 53.1299L4.93695 53.2509L4.92493 53.4119L4.68295 57.4409L4.66693 57.687L4.43195 57.7789L2.51993 58.5259L3.14194 63.6969L4.81195 62.5849L4.89795 62.5269L5.00894 62.5229L9.88992 62.2759L10.325 62.2569L10.299 62.6879L9.92993 68.5499L9.91394 68.8189L9.65094 68.899L6.62094 69.7969L6.52295 71.5519L8.72693 73.8739L8.97794 74.1349L8.72693 74.4059L5.37393 77.9879L6.99893 81.1239L15.3659 83.0389L15.4789 83.0599L15.5539 83.1419L20.0959 87.6839L24.674 88.1279L26.6379 83.5069L26.7159 83.334L26.8999 83.2859L30.8029 82.2509L31.3729 78.7299L31.8619 75.0659L31.8969 74.7969L32.1589 74.7379L37.1459 73.5759L37.7199 69.5659L37.7309 69.4959L37.769 69.4279L41.9189 62.3479L41.9749 62.2569L42.0659 62.2039L49.0249 58.2959L49.2039 58.1969L49.3899 58.2919L52.8469 60.0789H54.5329L55.7959 55.6059L55.8529 55.3969L56.0569 55.3349L59.5279 54.2589L61.4509 52.7419L58.769 49.9519L57.2 50.6839L54.6419 52.0249L54.4959 52.1019L54.3389 52.049L43.2309 48.3909L43.1669 48.3669L43.1089 48.3219L40.5479 46.243L40.476 46.1889L40.4359 46.0989L37.5049 39.5089L37.446 39.3699L37.4919 39.2249L38.8339 35.3179L38.8819 35.183L39.0029 35.1109L44.2499 31.9379L44.3589 31.8709L44.4859 31.8839L47.4159 32.127L47.5849 32.14L47.6929 32.2809L50.0129 35.3319L50.0889 35.437L50.0919 35.562L50.2069 40.6259L52.3199 42.3179L55.0339 41.075L55.127 41.0299L55.2319 41.0389L57.7939 41.2829L57.9019 41.291L57.9819 41.3549L59.6949 42.575L59.7139 42.5909L59.7379 42.6149L63.6819 46.4399L65.5199 45.4179L66.8229 42.8069L64.4049 39.584L64.3459 39.506L64.3299 39.4049L63.9639 36.8439L63.9479 36.7169L64.0039 36.6049L66.5359 31.9059L67.0809 28.0849L65.0249 27.7749L64.9739 27.765L64.9259 27.7489L57.7219 24.5689L57.6819 24.5529L57.6369 24.5209L54.5859 22.0769L54.4959 22.0049L54.4589 21.8909L53.3499 18.4579L50.4109 19.2209L50.1539 19.2849L49.9989 19.0759L48.6539 17.2419L48.5979 17.1649L48.5819 17.0719L48.0949 13.8969H48.0979L47.6669 11.963L44.3589 11.1669L44.0869 11.0979L44.0649 10.8189L43.7249 6.52194L36.0129 6.16995L35.6399 6.15695V5.78293V0.0799561L32.2769 0.186951Z" fill="#FFFAC1"/>
</svg>
