<svg width="40" height="38" viewBox="0 0 40 38" fill="none" xmlns="http://www.w3.org/2000/svg">
<path fill-rule="evenodd" clip-rule="evenodd" d="M25.057 9.95294L19.302 9.47894L15.119 5.50394L15.537 1.73795L11.563 0.90094L9.25998 6.54895L0.892578 13.6619L1.52238 18.2639L5.91357 18.0559L9.25998 20.774L10.516 26.6319L14.283 26.2149L18.675 27.0499V29.9779L13.214 37.166L23.571 37.558L36.464 28.1189L35.447 26.4489L35.387 26.3539V26.2469V24.1619V23.9999L35.503 23.8879L37.037 22.351L37.07 22.3189L37.115 22.2919L39.306 20.9999L39.056 19.2639L36.45 19.0779L35.032 20.192L34.823 20.3519L34.597 20.2239L32.294 18.907L32.195 18.851L32.141 18.748L30.716 16.0079L30.676 15.9339L30.673 15.843L30.562 13.3199L30.56 13.2099L30.616 13.11L31.948 10.8009L25.773 10.4019L25.658 10.3969L25.567 10.3279L25.057 9.95294Z" fill="#CDCDCD"/>
</svg>
