<svg width="178" height="137" viewBox="0 0 178 137" fill="none" xmlns="http://www.w3.org/2000/svg">
<path fill-rule="evenodd" clip-rule="evenodd" d="M3.14899 106.156L20.882 113.303L37.201 117.071L40.546 130.043L52.468 136.317L60.837 136.106L72.7629 128.995L81.969 131.924L91.588 131.294L94.099 135.687L99.6349 135.926L101.449 129.216L101.494 129.048L101.648 128.967L106.954 126.19L101.265 119.978L100.986 119.672L101.305 119.416L106.854 114.925L104.747 108.595L104.577 108.082H105.117H115.672L122.14 102.691L122.275 102.582L122.442 102.604L128.249 103.396L139.082 89.043L139.186 88.9039L139.36 88.8889L146.292 88.3589L148.382 84.9609L148.449 84.8569L148.571 84.809L154.507 82.3779L159.031 76.7919L159.549 70.832L154.805 67.6669L154.632 67.5499V67.343V61.5869V61.3929L154.786 61.2759L165.124 53.3859L168.648 45.2529L168.716 45.0939L168.874 45.041L177.918 41.851L177.404 34.621L171.846 29.5939L165.651 28.5179L165.422 28.4769L165.345 28.252L160.169 12.72L156.952 9.77094L156.699 9.54193L156.896 9.26294L160.102 4.71594L159.656 0.26593L155.863 4.53693L155.718 4.69394L155.51 4.66293L152.292 4.16595L150.46 11.2289L150.407 11.45L150.186 11.5079L132.911 16.1669L132.655 16.239L132.498 16.0239L129.597 12.0719H125.682H125.587L125.498 12.0229L121.762 10.0269L119.732 14.848L119.664 15.0109L119.499 15.064L111.271 17.806L111.145 17.8499L111.02 17.806L106.774 16.306L105.769 21.082L105.712 21.358L105.436 21.3879L97.069 22.4379L97.8 26.5549L102.898 30.8499L103.196 31.1019L102.942 31.3979L98.636 36.517L97.835 44.2499L100.611 50.7849L101.058 49.481L102.758 38.8339L102.768 38.767L102.805 38.705L105.58 33.7939L105.712 33.5679L105.963 33.595L109.597 34.0229L109.888 34.0599L109.933 34.3519L110.577 38.4109L110.587 38.4789L110.577 38.5359L108.877 48.1019L109.51 57.4199L110.991 62.502L111.031 62.627L110.983 62.749L109.061 67.6619L109.028 67.744L108.96 67.8069L106.016 70.5389L105.06 72.2629L106.08 75.5229L106.122 75.653L106.068 75.7839L104.784 78.9879L104.712 79.1719L104.519 79.2219L101.382 80.004L101.184 83.5649L101.175 83.6599L101.125 83.7449L97.064 90.3669L96.989 90.4919L96.849 90.538L90.777 92.4199L86.793 97.8699L86.663 98.0499L86.448 98.0319L81.887 97.6309L80.672 104.545L80.65 104.652L80.5779 104.734L77.163 108.584L77.102 108.646L77.0259 108.677L66.084 113.52L64.64 118.47L64.581 118.666L64.3879 118.733L57.338 121.081L56.938 121.211L56.84 120.807L55.832 116.775L48.386 115.326L48.1039 115.27L48.072 114.988L47.442 109.54L42.288 102.942H35.429H35.2939L35.185 102.856L20.8749 91.5369L20.831 91.4999L20.803 91.46L16.33 85.3649L9.16498 90.4789L9.06097 90.554L8.93298 90.551L4.83997 90.4559L5.04596 91.3599L5.09595 91.567L4.94495 91.7209L2.74799 93.918L3.54895 97.1169L3.599 97.3159L3.46497 97.47L0.435974 100.904L3.14899 106.156Z" fill="#3CB371"/>
</svg>
