<svg width="143" height="243" viewBox="0 0 143 243" fill="none" xmlns="http://www.w3.org/2000/svg">
<path d="M142.143 242.987L140.463 222.066L138.163 212.443L131.263 205.542L131.883 195.29L135.443 192.36L123.523 178.554L123.733 168.932L128.743 163.492L127.493 158.055L117.453 155.125L107.203 136.926L109.713 135.251L112.853 139.645L117.863 136.507L110.133 129.185L105.943 131.486L99.2629 127.151L99.153 127.276L95.693 119.145H88.793L87.953 123.956L83.563 123.536L69.343 95.0859L70.173 86.0919L75.823 84.8359L71.6429 68.1009L80.6329 75.2129L80.843 55.1289L87.953 47.8089L98.6229 47.5999L92.563 32.7459L89.663 0.751938L82.7529 2.84395L82.603 2.88994L82.463 2.81694L77.323 0.110947L68.433 25.6249L68.343 25.8939L68.063 25.8849L56.7529 25.5959L46.323 28.7839L45.973 28.8929L45.843 28.5429L42.453 19.1989L28.3829 20.0449L25.853 24.5229L25.7729 24.6699L25.603 24.7119L15.903 26.9939L14.223 32.0319L14.153 32.2709L13.903 32.2949L8.62292 32.8509L6.953 38.7189L6.89294 38.9189L6.69299 38.9809L0.603027 40.9189L1.69299 46.9109L10.443 59.6229L15.8729 60.7639L16.083 60.8069L16.153 61.0059L19.8629 70.7179L26.033 70.1539L26.203 70.1399L26.333 70.2599L30.443 74.0759L30.543 74.1619L30.563 74.2889L31.703 80.2779L37.3729 83.4809L41.303 79.8159L30.6429 67.0559L33.1429 58.6859L43.403 55.1289L37.953 63.2899L39.213 69.5659L47.3729 75.2129L51.1329 75.4219L50.933 81.2789L54.4829 82.1179L51.1329 98.8519L54.903 105.126L56.163 124.582L59.093 137.134L63.063 149.686L58.463 154.707L59.923 159.518L57.413 162.866L63.8929 170.395L64.943 182.318L73.843 192.37V192.368L84.403 204.285L142.143 242.987Z" fill="#EFEFEF"/>
</svg>
