<svg width="60" height="71" viewBox="0 0 60 71" fill="none" xmlns="http://www.w3.org/2000/svg">
<path fill-rule="evenodd" clip-rule="evenodd" d="M7.84894 70.6069L10.2349 67.4659L18.1879 66.834L18.8139 61.187L22.5769 59.097L26.5559 59.3049L31.368 63.071L34.2939 60.3529L30.7379 54.493L29.0649 48.6379L33.0389 44.4509L36.5949 43.407L42.0349 49.2619L53.3149 49.9749L53.3189 49.9429L53.3299 49.8709L53.3649 49.8069L56.4849 44.239L48.187 39.261L47.9819 39.14L47.9979 38.9059L48.2849 34.45L48.2979 34.2709L48.4419 34.1619L59.644 25.7939L59.7839 18.5519L58.808 13.3929L55.8109 10.5259L54.1949 11.5169L54.0569 11.6019L53.8969 11.5659L51.0219 10.847L50.9359 10.8239L50.8649 10.765L38.9449 0.547943L36.8709 1.07095L36.2969 5.08493L36.2879 5.15295L36.256 5.21494L33.752 9.85995L34.0869 12.2009L36.5919 15.541L36.7349 15.7299L36.6259 15.946L35.1609 18.8759L35.1079 18.985L35.0009 19.0429L32.8029 20.2639L32.5529 20.4019L32.3469 20.1979L28.2179 16.1929L26.6159 15.0499L24.2619 14.8259L21.4259 16.1259L21.2089 16.2249L21.0239 16.0759L18.5799 14.123L18.4359 14.006V13.8259L18.3159 8.70395L16.1779 5.89594L13.545 5.67493L8.52695 8.70895L7.27893 12.3399L10.1069 18.7009L12.5419 20.6709L23.4299 24.261L25.8449 22.9949L25.8589 22.9919L27.6929 22.1339L27.9429 22.0169L28.1369 22.2159L31.3109 25.511L31.6079 25.8199L31.2699 26.0859L28.9519 27.92L28.8949 27.963L28.8239 27.9869L25.489 29.0209L24.2039 33.5769L24.1219 33.86H23.8269H21.7529H21.6599L21.5739 33.8199L18.2209 32.0829L11.5349 35.8359L7.47995 42.7549L6.87894 46.9539L6.84293 47.2199L6.58295 47.278L1.59595 48.4399L1.14194 51.834L1.13895 51.8419L0.585938 55.2939L8.82693 57.8149L8.99695 57.868L9.06894 58.0259L10.7929 61.7619L10.8589 61.9019L10.8089 62.0459L9.94693 64.6339L9.90793 64.7459L9.81693 64.8179L6.72693 67.2399L7.84894 70.6069Z" fill="#3CB371"/>
</svg>
