<svg width="43" height="69" viewBox="0 0 43 69" fill="none" xmlns="http://www.w3.org/2000/svg">
<path fill-rule="evenodd" clip-rule="evenodd" d="M2.7293 32.559L0.5 34.791L0.919899 41.0649L6.7775 49.4329L6.3608 58.22L5.3111 62.4059L10.5421 68.892L13.0518 67.8419L14.5166 65.3359L17.6529 67.0059L21.0024 68.054L24.9785 65.5419V54.457L27.6965 38.7659L37.739 29.142L38.575 19.0999L37.529 14.7069L42.394 11.0439L40.965 7.28094L34.581 0.898956L32.237 2.72293L32.128 2.80594L31.984 2.80093L25.1532 2.51895L21.4495 5.43094L22.7588 8.05194L22.9159 8.36993L22.6146 8.55493L19.318 10.6029L23.5073 16.5889L28.0026 17.4299L28.2462 17.476L28.3087 17.7139L29.761 23.236L29.849 23.5659L29.536 23.6959L26.0458 25.1469L25.9609 25.1819L25.8679 25.1769L22.3454 24.9059L17.8164 33.684L17.5936 34.1169L17.2202 33.801L13.7313 30.8519L11.6591 33.184L11.5309 33.3279L11.3338 33.312L2.7293 32.559Z" fill="#FFFAC1"/>
</svg>
