<svg width="158" height="280" viewBox="0 0 158 280" fill="none" xmlns="http://www.w3.org/2000/svg">
<path fill-rule="evenodd" clip-rule="evenodd" d="M105.993 254.313L111.563 263.417L109.473 270.116L112.873 279.855L118.763 278.56L116.413 273.861L116.303 273.64L116.453 273.451L119.883 268.946L119.993 268.802L120.173 268.792L132.933 267.943L140.373 262.981L139.543 255.281L139.493 254.866L139.913 254.85L145.373 254.646L146.993 243.582L139.683 242.971L139.533 242.956L139.423 242.848L134.283 237.272L133.983 236.953L134.333 236.695L142.913 230.259L143.143 230.087L143.373 230.254L150.873 235.617L151.003 235.705L151.033 235.859L152.063 240.985L155.893 242.07L157.793 217.396L155.083 209.657L142.943 184.975L138.973 180.163L135.413 162.798L132.993 157.024L132.143 156.088L123.073 152.338L119.933 148.575L122.653 143.134L115.963 140.414L101.943 137.903L91.063 143.551L87.293 160.08L82.693 154.219L77.463 160.917L73.073 148.155L63.8729 153.801L56.1229 152.549L56.543 145.225L66.593 120.124L69.093 95.0219L72.0229 82.8869L69.5129 72.8449L72.8629 63.8519L71.403 54.2289L92.5229 33.5179L99.223 34.7699L99.853 32.261L97.973 29.3329L100.913 27.3889L97.2729 21.019H90.063L83.913 25.5499L83.543 25.8219L83.333 25.4119L80.3729 19.485L80.283 19.304L80.3829 19.1259L83.933 12.6709L82.353 4.80194L67.943 -0.00106812L61.313 4.42093L59.713 10.205L59.6329 10.45L59.3929 10.4869L50.693 11.774L48.153 16.218L48.073 16.368L47.903 16.4019L40.323 18.049L40.223 18.0719L40.123 18.0369L28.873 14.1809L25.883 18.062L31.723 33.6539L31.7729 33.7759L31.743 33.8959L27.533 48.7699L33.8929 53.2159L34.003 53.2969L34.043 53.4269L37.663 66.2639L37.753 66.58L37.4529 66.7189L32.753 68.9099L33.063 74.9009L33.073 74.9829L33.043 75.0549L30.743 81.308L30.653 81.545L30.403 81.5639L20.863 82.1979L20.233 89.437L20.213 89.679L19.983 89.765L3.78497 95.9219V114.736V114.88L3.68994 114.989L0.0219727 119.268L8.22198 124.944L8.50598 125.143L8.349 125.444L3.90198 134.018L12.162 139.419L12.264 139.486L12.31 139.6L14.285 144.538L14.376 144.767L14.2079 144.947L9.76196 149.708L12.9529 158.702L26.073 151.88L26.3329 151.74L26.543 151.958L30.863 156.644L31.043 156.833L30.933 157.074L24.493 171.036L25.2029 177.778L25.223 178.029L25.0129 178.154L20.173 180.919L20.493 186.437H31.303H31.503L31.623 186.608L36.553 193.995L41.9529 193.657L50.7729 185.543L52.193 179.53L52.2529 179.227H52.563H59.173L61.2329 175.118L61.353 174.864L61.6329 174.906L66.323 175.626L66.563 175.662L66.6329 175.896L70.963 189.232L71.033 189.458L70.8629 189.623L67.9829 192.509L67.8929 192.594L67.7629 192.618L57.103 194.336L59.7729 199.995L59.8729 200.234L59.703 200.428L55.453 205.027L54.3929 211.045L54.3729 211.148L54.303 211.229L48.0229 218.557L50.703 221.911L50.8929 222.143L50.713 222.382L46.463 228.044V234.887L57.793 240.545L57.8729 240.589L57.923 240.666L67.033 253.282L72.7329 247.877L72.853 247.769L73.0129 247.774L85.2329 247.984L85.3729 247.989L85.473 248.069L90.8829 252.441L107.203 246.931L107.873 246.707L107.703 247.394L105.993 254.313Z" fill="#3CB371"/>
</svg>
