<svg width="45" height="72" viewBox="0 0 45 72" fill="none" xmlns="http://www.w3.org/2000/svg">
<path fill-rule="evenodd" clip-rule="evenodd" d="M19.4109 0.45697L16.994 1.59595L16.015 5.84894L18.422 11.694L18.503 11.903L18.369 12.0789L13.931 17.8849L14.87 21.0129L20.6429 23.0499L21.0049 23.179L20.8849 23.538L18.777 29.8539L18.7599 29.921L18.718 29.9709L14.978 34.7319L16.335 40.155L16.358 40.2499L16.335 40.3439L15.309 44.4409L16.672 48.1859L16.758 48.4199L16.582 48.595L10.62 54.5549L10.58 54.5999L10.521 54.627L7.01099 56.382L6.98199 56.395L6.96796 56.3989L2.26099 58.0839L0.595947 65.4109L5.15399 71.27L10.811 66.9459L11.37 66.517L11.4009 66.8439L21.6429 66.1849L24.361 59.0499L24.464 58.7809L24.754 58.8029L29.0439 59.132L32.089 52.713L32.1559 52.569L32.305 52.515L37.765 50.468L39.4139 46.83V42.7079V42.4739L39.623 42.3649L44.658 39.6779L44.33 35.416L42.243 29.15L42.232 29.1149L42.227 29.0969L41.1899 23.2089L36.672 16.265L36.555 16.085L36.645 15.8909L38.607 11.637L35.1559 9.44092L29.326 10.1249L29.3019 10.1299H29.284H22.972H22.694L22.603 9.86395L19.4109 0.45697Z" fill="#3CB371"/>
</svg>
