<svg width="197" height="155" viewBox="0 0 197 155" fill="none" xmlns="http://www.w3.org/2000/svg">
<path fill-rule="evenodd" clip-rule="evenodd" d="M52.427 0.309937L47.892 0.381927L41.365 6.16394L41.265 6.25293L41.129 6.26096L35.23 6.56995L35.004 6.58295L34.882 6.39194L32.954 3.36093L23.446 11.8309L21.925 17.308L21.893 17.42L21.808 17.4949L11.764 26.4569L0.745972 45.3259L3.08096 47.7009L3.15598 47.7799L3.17996 47.89L4.32996 53.062L11.896 57.524L12.008 57.5889L12.057 57.7099L16.606 68.5829L16.631 68.6479L16.635 68.7229L16.832 75.2459L16.835 75.3749L16.76 75.4829L12.902 80.8849L14.452 89.2169L15.442 94.1579L15.477 94.3419L15.359 94.4819L10.759 100.041L12.014 103.267L20.212 108.538L20.421 108.673L20.388 108.921L19.2 117.027L18.819 121.215L21.764 125.629L28.122 124.387L30.209 120.419L30.379 120.096L30.71 120.241L35.635 122.383H39.124L40.977 120.944L41.121 120.83L41.297 120.867L44.206 121.492L47.716 119.633L49.193 117.947L49.314 117.808L49.499 117.816L55.312 118.023L56.517 114.805L56.724 114.255L57.15 114.66L61.232 118.527L68.529 121.529L72.204 122.393L72.391 122.438L72.47 122.614L77.031 132.823L83.087 144.714L95.859 154.296L102.888 150.272L103.708 145.964L103.739 145.803L103.878 145.708L108.152 142.931L108.271 142.855L108.409 142.873L113.43 143.476L117.818 129.473L117.853 129.356L117.954 129.28L124.148 124.581L124.305 124.459L124.493 124.513L131.113 126.44L131.177 126.452L131.222 126.485L140.1 132.403L153.652 132.619H153.78L153.88 132.691L163.287 139.591L174.602 133.097L174.818 132.972L175.025 133.115L180.879 137.301L187.514 136.472L194.788 133.353L196.102 129.972L187.847 125.225L187.652 125.111V124.887V114.583L182.74 109.673L180.11 109.47L179.922 109.458L179.815 109.3L174.808 101.998L168.186 102.206L168.029 102.21L167.909 102.102L161.524 96.1239L154.519 101.278L154.402 101.365L154.253 101.351L145.28 100.496L145.194 100.487L145.117 100.442L136.358 95.0989L136.273 95.049L136.227 94.9689L131.377 86.9569L118.247 81.239L118.188 81.2139L118.14 81.1719L108.641 72.5179H97.895H97.495L97.508 72.1169L97.716 65.2019L95.022 61.679L94.95 61.5849L94.943 61.4579L94.522 51.3329L89.797 45.3759L73.949 44.5299L73.811 44.5229L73.71 44.429L71.146 42.0789L71.024 41.9649L71.018 41.8019L70.81 35.1509L64.426 30.209L50.443 29.1509L50.219 29.1329L50.123 28.9299L46.277 20.8089L46.179 20.6019L46.312 20.4179L52.011 12.3949L52.427 0.309937Z" fill="#FFFAC1"/>
</svg>
