<svg width="36" height="22" viewBox="0 0 36 22" fill="none" xmlns="http://www.w3.org/2000/svg">
<path d="M0.245972 8.94293L0.857971 12.166L5.39496 12.546L5.50397 12.5519L5.61298 12.562L5.70294 12.629L5.78796 12.692L10.482 16.1039L14.282 18.5029L20.853 17.8879L20.9969 17.8749L21.141 17.8599L21.258 17.947L21.3749 18.025L26.5389 21.6589L35.14 10.7079L33.1 7.47992H28.752L25.4709 8.70892L25.245 8.79095L25.024 8.87592L24.85 8.71393L24.675 8.55695L22.114 6.20593H22.1089L22.077 6.17596L22.047 6.14795L22.0229 6.11292L22.002 6.08093L19.215 2.17896L10.856 7.15192L10.4969 7.36792L10.136 7.57892L9.95197 7.20795L9.76294 6.83295L6.44696 0.197937L2.64496 1.62097L4.15997 6.91394L4.26697 7.27795L4.37097 7.64392L4.00598 7.75592L3.64496 7.87292L0.245972 8.94293Z" fill="#CDCDCD"/>
</svg>
