<svg width="32" height="29" viewBox="0 0 32 29" fill="none" xmlns="http://www.w3.org/2000/svg">
<path fill-rule="evenodd" clip-rule="evenodd" d="M2.44899 1.68494L2.96498 2.19794L3.11899 2.35394L3.06398 2.56793L2.10098 6.43094L2.07799 6.50595L2.03198 6.56995L0.0529785 9.20993L2.67598 12.0509L6.46298 13.7099L6.55598 13.7469L6.61398 13.8269L14.342 23.726L14.383 23.7789L14.403 23.8349L16.045 28.4359L18.56 27.9349L20.387 25.3059L20.493 25.153L20.68 25.14L25.353 24.7809L25.523 24.7679L25.648 24.8869L27.477 26.6049L30.405 24.9299L31.254 14.7679L26.648 12.235L26.459 12.1279L26.446 11.9119L26.216 7.72693L24.086 5.81195L20.679 6.94794L20.521 7.00095L20.374 6.92294L9.12799 0.942932L2.44899 1.68494Z" fill="#3CB371"/>
</svg>
