<svg width="43" height="27" viewBox="0 0 43 27" fill="none" xmlns="http://www.w3.org/2000/svg">
<path fill-rule="evenodd" clip-rule="evenodd" d="M39.567 24.2399L40.7579 22.7539L42.657 20.006V13.554L39.681 11.9109L39.5959 11.8649L39.541 11.7799L37.237 8.15894L37.192 8.08694L37.179 8.00693L36.613 4.32394L32.511 6.96194L32.434 7.01193L32.341 7.02094L24.55 7.78894L24.326 7.80994L24.196 7.62393L22.754 5.56894L20.201 5.17493L18.459 6.20294L18.0289 6.45593L17.8869 5.97495L16.21 0.20694L12.81 0.0129395L9.96996 2.64194L9.85396 2.74893L9.69696 2.74594L4.40996 2.63693L1.85995 3.75995L0.337952 6.40094L0.438957 8.72293L1.77396 11.2879L3.74995 12.4179L5.07695 11.373L5.19495 11.2799L5.34595 11.291L8.41695 11.5099L8.73096 11.5329L8.77396 11.8449L9.10295 14.1479L9.14096 14.4059L8.91695 14.5379L6.54796 15.937L5.15996 17.3259V19.1389L6.25195 20.9269L16.938 26.5899L23.77 22.6409L23.9169 22.5559L24.0809 22.6049L25.836 23.153L25.877 23.166L25.921 23.1939L31.228 26.42L32.66 24.7019L32.769 24.5689L32.942 24.5639L39.567 24.2399Z" fill="#FFFAC1"/>
</svg>
