<svg width="47" height="81" viewBox="0 0 47 81" fill="none" xmlns="http://www.w3.org/2000/svg">
<path fill-rule="evenodd" clip-rule="evenodd" d="M23.046 80.3279L27.686 78.666L31.1039 76.96L36.851 71.213L35.534 67.59L35.494 67.478L35.5229 67.361L36.55 63.2469L35.173 57.7339L35.127 57.546L35.2419 57.3969L39.063 52.541L41.025 46.658L35.422 44.6769L35.236 44.6149L35.18 44.426L34.127 40.916L34.071 40.7269L34.189 40.5699L38.614 34.7859L36.244 29.0289L36.197 28.9119L36.225 28.7949L37.278 24.236L37.319 24.0519L37.491 23.97L43.387 21.194L46.299 18.2869L40.1169 6.26392L40.0519 6.13892L40.082 6.00293L40.976 1.82996L34.303 4.68896L34.1479 4.75592L33.9919 4.68896L25.325 0.875916L15.4109 2.24493L11.649 6.68695L11.533 6.82697H11.352L1.15497 6.77692L0.942993 34.233L4.64197 33.7549L5.02795 33.707L5.07599 34.098L5.76196 39.5809L10.937 45.0989L10.993 45.1609L11.02 45.233L12.732 50.0319L17.541 53.4659L17.886 53.713L17.613 54.033L13.974 58.3359L16.903 61.59L17.041 61.744L16.9919 61.9459L15.5909 67.5549L15.553 67.7039L15.423 67.7889L11.732 70.14L11.421 76.715L19.936 76.9719L20.1039 76.976L20.2159 77.103L23.046 80.3279Z" fill="#CDCDCD"/>
</svg>
