<svg width="79" height="87" viewBox="0 0 79 87" fill="none" xmlns="http://www.w3.org/2000/svg">
<path fill-rule="evenodd" clip-rule="evenodd" d="M72.024 34.9859L66.875 37.3409L66.724 37.4079L66.572 37.3489L51.922 31.7009L46.977 37.2439L46.733 37.5199L46.445 37.2879L44.116 35.4269L43.969 35.3069V35.123V26.3479L42.757 23.4749L42.662 23.2499L42.828 23.0649L54.56 9.94495L54.072 4.27893L50.668 0.146942L46.055 0.875946L39.395 5.22693L39.292 5.29593L39.167 5.29294L33.234 5.04495L32.399 7.12994L36.605 11.088L36.893 11.3589L36.616 11.6429L31.447 16.9789L31.441 16.989L28.891 19.7729L28.652 27.8359L28.643 28.2229L28.26 28.2139L15.628 27.9769L10.62 33.0739L13.769 36.2799L13.78 36.2879L13.801 36.317L17.304 40.8759L17.493 41.1209L17.293 41.3619L15.341 43.6809L15.279 43.7499L15.2 43.7849L11.049 45.618L10.846 45.7059L10.665 45.5769L5.243 41.657L0.690979 48.032L1.72198 52.6119L4.09898 54.5379L15.11 56.4729L15.243 56.4969L15.333 56.5979L19.726 61.4789L19.769 61.5269L19.795 61.5899L21.261 65.1329L21.288 65.196L21.292 65.2679L21.535 72.4699L21.54 72.6459L21.535 72.6509L21.657 84.7449L22.099 86.1449L24.689 79.5419L24.771 79.3309L24.994 79.2969L31.092 78.3609L33.954 67.9829L34.04 67.6719L34.356 67.6989L37.533 67.9409L37.598 67.946L37.667 67.9779L41.105 69.5849L45.312 66.0559L45.659 63.1669L45.781 60.6239L45.799 60.2419L46.183 60.2529L53.02 60.4989L53.164 60.502L53.272 60.601L57.278 64.3739L60.381 63.7969L60.597 63.7569L60.743 63.9269L63.157 66.7009L65.04 68.1669L68.255 64.5529L70.756 61.1639L67.91 58.6749L67.779 58.558V58.3819V54.2929V54.0369L68.018 53.9339L78.853 49.373L78.489 43.5379L72.024 34.9859Z" fill="red"/>
</svg>
