<svg width="189" height="108" viewBox="0 0 189 108" fill="none" xmlns="http://www.w3.org/2000/svg">
<path fill-rule="evenodd" clip-rule="evenodd" d="M73.977 0.960938L66.259 10.9219L68.953 15.0869L69.078 15.2829L68.972 15.4839L67.232 18.7149L68.49 24.0069L68.557 24.2879L68.306 24.433L63.39 27.2799L63.184 27.3979L62.986 27.2699L56.621 23.196L50.532 23.4489L50.21 23.4639L50.137 23.1449L49.137 18.627L33.791 6.80594L32.093 9.36095L36.362 16.3929L36.442 16.5259L36.409 16.6749L35.117 22.6259L35.091 22.7399L35.009 22.821L31.343 26.4899L33 29.334L33.048 29.4129L33.053 29.4989L33.312 32.6019L33.348 33.006L32.937 33.024L26.913 33.274L22.18 39.5009L21.946 43.2499L27.636 45.6189L30.037 42.7339L30.109 42.6499L30.214 42.614L35.649 40.8029L35.968 40.6979L36.118 40.998L39.479 47.726L39.622 48.006L39.377 48.205L26.838 58.183L26.584 63.6979L26.576 63.8799L26.432 63.989L22.035 67.3549L21.858 67.4899L21.652 67.4049L16.174 65.1639L12.235 68.3629L0.57196 81.4019L1.71796 84.1259L1.74997 84.2L1.74896 84.2749V92.9389L3.64096 94.455L8.51996 88.9839L8.69797 88.7839L8.94897 88.8799L23.7 94.5659L28.843 92.2159L31.734 85.0649L31.846 84.7929L32.133 84.8199L41.914 85.7529L42.064 85.7659L42.168 85.881L49.414 94.0549L57.358 98.1799L68.495 99.4009L72.891 96.976L73.12 96.8479L73.325 97.0179L85.348 106.88L92.744 107.916L106.118 85.011L106.15 84.9579L106.195 84.9179L116.2 75.9899L117.721 70.5099L117.753 70.3999L117.836 70.325L127.772 61.476L128.115 61.1719L128.359 61.5599L130.409 64.7809L135.949 64.4909L142.483 58.7059L142.589 58.6089L142.731 58.6079L152.765 58.4489L160.086 52.399L160.187 52.317L160.318 52.3109L174.678 51.6729L178.443 47.2799L178.513 47.2L178.617 47.1649L184.297 45.2709L187.675 40.0509L185.467 32.7959L185.419 32.636L185.499 32.4909L188.138 27.8019L185.375 27.3009L183.581 29.993L183.465 30.1679H183.255H179.859L175.449 34.2589L175.298 34.3999L175.095 34.3539L169.836 33.1159L165.796 37.782L165.689 37.9039L165.53 37.916L153.584 38.8829L153.445 38.8959L153.328 38.8109L101.505 1.79494L96.523 3.35294L96.449 3.37694L96.369 3.36694L73.977 0.960938Z" fill="#3CB371"/>
</svg>
