<svg width="201" height="454" viewBox="0 0 201 454" fill="none" xmlns="http://www.w3.org/2000/svg">
<path d="M186.543 46.1899L190.943 30.6899L177.543 15.3899L165.043 14.9899L160.643 21.2899L155.643 22.0899L159.443 11.3899L149.043 10.1899L152.343 5.38994L146.043 0.189941L140.443 2.28995L131.443 15.6899L133.543 23.5899L123.943 24.1899L124.143 26.6899L127.743 31.8899L120.843 30.3899L117.243 33.6899L109.343 32.1899L108.343 28.5899L97.043 28.7899L97.243 35.2899L83.6429 37.1899L74.443 44.4899L67.343 44.6899L62.1429 49.2899L59.843 58.6899L64.243 66.6899L57.543 68.3899L39.743 65.4899L29.443 65.2899L26.343 70.8899L25.943 85.4899L32.443 91.7899L35.543 99.0899H26.543L18.843 84.6899L13.043 85.1899L13.1429 85.8899L18.043 96.3899L18.243 96.8899L17.743 96.9899L12.443 97.8899L11.243 104.29L16.1429 114.79L16.243 114.89V114.99L15.043 119.99V120.19L14.843 120.29L3.24298 125.49L1.74298 131.39L9.34296 141.39L17.943 143.49L18.1429 143.59V143.89L20.043 154.59L19.543 155.99L16.543 163.69L16.443 163.89L16.243 163.99L8.44299 166.09L10.843 171.69L10.943 171.79V171.89L8.44299 179.29L14.6429 187.39L14.743 187.49V187.69L13.1429 202.49L18.1429 209.39L18.243 209.49V209.69L16.343 220.29L23.843 225.89L23.943 225.99V226.19L25.243 233.79V233.99L25.1429 234.09L18.543 243.19L17.943 251.39V251.49L17.843 251.59L7.64294 264.59V274.69L15.943 279.49L16.243 279.69L16.1429 279.99L14.6429 283.79L14.543 283.99L14.343 284.09L6.84296 287.29H6.74298L0.342957 288.09L3.14294 297.89L3.24298 298.09L3.14294 298.29L0.442993 301.69V306.79L20.443 309.89H20.6429L20.743 310.09L26.6429 322.19L32.043 322.89H32.443V323.29L32.043 327.89V328.09L31.943 328.19L24.043 335.09L24.743 340.69L29.1429 345.09L35.743 347.19L36.1429 347.29L36.043 347.69L34.943 351.59V351.69L34.843 351.79L27.6429 357.29L27.343 364.49V364.69L26.343 369.29L32.543 381.39L32.6429 381.69L32.443 381.89L29.243 385.09H29.1429L26.443 386.39L29.543 395.59H35.543L41.443 394.89H41.543L41.6429 394.99L45.543 397.49L45.843 397.69L45.743 397.99L43.743 402.39L48.1429 409.19V409.29V409.39L49.1429 415.29L51.243 421.59L51.6429 426.19V426.49L51.443 426.59L46.343 429.29V433.39V433.49L44.543 437.39L44.443 437.49L44.243 437.59L38.743 439.59L35.843 445.79L44.6429 451.99L59.1429 453.89L65.443 448.69L65.543 448.59H65.6429L68.943 447.79L69.1429 444.49V444.29L69.343 444.19L74.443 440.89L74.043 437.29V436.99L74.343 436.89L78.1429 435.89L79.343 430.79L79.443 430.49H79.743L98.943 428.79L99.943 424.39L89.243 414.79L89.1429 414.69V410.09L89.343 409.99L94.1429 407.79H94.243H94.343L100.343 408.39L101.543 389.69V389.59V389.49L105.343 382.19L105.443 381.99H105.643L112.043 381.09L113.243 375.79L106.643 365.39L106.543 365.19L106.643 364.99L112.743 353.89L112.843 353.69H113.043L127.843 353.09L131.843 347.79L132.243 347.29L132.543 347.89L138.143 359.99L141.343 358.69L140.743 351.69V351.49L140.843 351.39L155.043 335.89L155.943 329.69V329.49L163.543 325.99L163.743 326.39L167.243 333.89L173.743 337.69L175.243 332.49V332.39L175.343 332.29L179.043 328.69L177.543 324.39L174.243 323.49L173.943 323.39V323.09L174.243 318.99V318.89L174.343 318.79L179.343 313.49L178.443 309.49L171.643 307.29L171.443 307.19L171.043 306.19L169.143 299.79L169.043 299.59L169.143 299.39L172.543 294.79L169.443 289.59L169.243 289.29L169.543 289.09L177.743 284.09L182.443 275.09L181.843 267.99L178.743 262.99L178.643 262.79L178.743 262.59L181.843 255.69L180.343 251.69V251.59V251.49L180.043 245.09V244.79L180.243 244.69L185.943 242.19L191.843 240.99L194.443 238.19L192.343 235.59L187.843 238.59L187.643 238.79L187.443 238.59L183.143 235.19H172.643V234.79L173.243 229.09V228.99L173.343 228.89L179.343 221.59L181.143 216.79L177.243 214.09L177.043 213.99V208.49L173.643 204.79L173.543 204.69V204.49L175.043 197.09L171.143 194.09L170.843 193.79L171.143 193.49L177.043 186.89L174.843 159.09L167.943 148.39L171.443 146.59L179.843 139.79L179.943 139.69H180.143L185.043 140.29L186.843 131.59V131.49V131.39L189.243 127.69L189.843 122.79V122.59L189.943 122.49L200.243 114.39L195.843 109.09L195.743 108.99V100.59L186.843 87.9899L186.743 87.8899V87.7899L185.543 81.3899L182.843 77.6899L182.743 77.5899V77.4899L183.043 73.7899L177.543 76.5899L171.243 81.3899L162.643 83.8899L159.343 89.7899L159.543 81.3899L176.943 63.3899L186.543 46.1899Z" fill="#FFFAC1"/>
</svg>
