<svg width="62" height="48" viewBox="0 0 62 48" fill="none" xmlns="http://www.w3.org/2000/svg">
<path fill-rule="evenodd" clip-rule="evenodd" d="M6.09894 37.0829L17.8829 39.8139L24.575 43.9999L28.5499 40.8619L34.407 43.9999L54.0729 47.7669L61.2209 44.5039L61.2289 44.338L60.8149 40.6339L54.0299 34.696L53.9029 34.584L53.8979 34.4179L53.7609 30.123L49.3469 26.127L44.2569 24.5689L44.0499 24.5049L43.9939 24.299L42.8519 20.0179L40.1319 13.718L40.0809 13.6039L40.1059 13.4829L41.196 8.17593L35.6029 5.51694L31.4619 7.58795L31.1799 7.72693L30.9809 7.47394L27.601 3.11395L20.3589 0.600952L12.1159 3.12195L12.5559 5.44095L12.562 5.47595L12.5599 5.52194L12.4179 12.9939L12.4149 13.1859L12.2609 13.2979L1.05194 21.6749L0.78894 25.7119L9.20892 30.7639L9.53494 30.9609L9.34894 31.2889L6.09894 37.0829Z" fill="#CDCDCD"/>
</svg>
