<svg width="37" height="37" viewBox="0 0 37 37" fill="none" xmlns="http://www.w3.org/2000/svg">
<path fill-rule="evenodd" clip-rule="evenodd" d="M8.09193 0.90094L4.63093 2.39093L2.95753 5.73795L0.446228 6.36694L0.236328 10.549L3.79593 12.6429L2.92873 20.463L7.14193 24.0859L9.06993 22.998L9.18993 22.9339L9.32493 22.955L11.7609 23.3619L12.0029 23.403L12.0729 23.6369L13.1169 27.1649L16.9969 29.7579L22.7469 30.9609L22.8609 30.9869L22.9459 31.0729L28.6429 36.9099L31.2089 34.5829L31.3219 34.4819H31.4679H33.4999H33.6809L33.7999 34.627L34.8769 35.9439L36.0659 35.7449L36.7119 34.243L34.1369 30.761L34.0659 30.67L34.0579 30.5569L33.8079 27.157L31.0799 26.2849L30.9169 26.2339L30.8449 26.08L30.0319 24.317L29.9949 24.235V24.1519V21.299L28.7209 19.64L28.6429 19.5349V19.4049V13.291L19.4899 1.32996L8.09193 0.90094Z" fill="#CDCDCD"/>
</svg>
