<svg width="71" height="63" viewBox="0 0 71 63" fill="none" xmlns="http://www.w3.org/2000/svg">
<path fill-rule="evenodd" clip-rule="evenodd" d="M39.2099 0.0899353L32.2989 0.34494L23.7189 3.48294L23.3019 10.3859L24.1369 13.5239L21.6279 15.6169L19.7449 10.8039L16.3979 10.5959L11.1669 5.57294L4.68494 9.75894L0.304932 10.2559L0.575943 16.2419L3.66093 21.2269L3.75494 21.3809L3.69894 21.5509L1.32195 28.9179L2.46294 32.5369L6.52594 30.5019L6.69594 30.4169L6.86694 30.4989L9.62694 31.8159L9.73795 31.8669L9.79694 31.9759L11.9029 35.7009L15.5909 35.2069L15.7649 35.1849L15.8979 35.3029L18.3039 37.4599L20.3279 37.6859L21.3759 36.2819L21.5439 36.0579L21.8099 36.1479L25.7559 37.4649L26.0009 37.5449L26.0219 37.8019L26.2849 40.9639L26.2939 41.0759L26.2379 41.1749L25.1549 43.2309L26.2589 45.2249L30.7719 45.3519L31.0669 45.3579L31.1389 45.6449L31.7319 48.0249L34.3619 48.3819L34.7739 48.4399L34.6939 48.8439L33.9329 52.6679L36.4969 57.6839L36.5299 57.7499L36.5369 57.8199L37.0029 62.2529L40.4409 60.4159L40.5399 60.3599L40.6519 60.3699L47.2229 60.8759L51.1849 52.5539L51.2229 52.4699L51.3029 52.4109L57.6139 47.6669L57.6659 47.6309L57.7249 47.6079L61.6679 46.2919L61.7319 46.2719H61.7969L67.3119 46.3999L70.1919 44.0939L64.8619 37.1349L61.4579 36.5019L61.2249 36.4589L61.1549 36.2309L59.5379 30.8719L57.4089 31.0749L57.0519 34.3179L57.0019 34.7519L56.5759 34.6559L54.8679 34.2599L54.7009 34.2199L54.6179 34.0759L53.3239 31.8349L51.6429 32.3319L51.3999 36.1459L51.3669 36.5979L50.9269 36.4989L48.5559 35.9729L48.3739 35.9309L48.2899 35.7599L46.9509 32.9549L40.3649 33.0819L40.1559 33.0869L40.0349 32.9119L37.3909 28.9999H31.1549H30.9709L30.8519 28.8559L29.1439 26.7449L28.9439 26.4979L29.1439 26.2529L39.8329 13.3229L39.2099 0.0899353Z" fill="#CDCDCD"/>
</svg>
