<svg width="36" height="32" viewBox="0 0 36 32" fill="none" xmlns="http://www.w3.org/2000/svg">
<path fill-rule="evenodd" clip-rule="evenodd" d="M14.93 4.18994L9.07697 0.518951L6.23997 2.78595L6.14098 2.86493L6.01396 2.87296L0.760971 3.09894L0.487976 11.8089L10.994 15.1949L11.215 15.2659L11.258 15.4949L12.814 23.8849L12.829 23.9429L12.822 24.002L12.301 28.265L15.13 27.1429L15.172 27.127L15.221 27.1219L24.008 25.9009L24.097 25.8879L24.18 25.9149L30.406 27.8689L30.547 27.9139L30.622 28.0399L32.571 31.2889L35.756 28.3189L35.518 21.364L34.107 17.9539L29.845 13.2189L18.867 11.2899L18.773 11.274L18.691 11.2079L16.128 9.13095L16.024 9.04593L15.994 8.91495L14.93 4.18994Z" fill="#CDCDCD"/>
</svg>
