<svg width="38" height="36" viewBox="0 0 38 36" fill="none" xmlns="http://www.w3.org/2000/svg">
<path fill-rule="evenodd" clip-rule="evenodd" d="M12.231 0.543945L8.02399 3.51895L0.11499 10.5739L2.42299 17.0529H7.78198H8.14299L8.16998 17.4119L8.64299 23.4299L11.471 28.1109L12.922 26.8559L13.063 26.735L13.244 26.765L18.635 27.7249L18.839 27.7599L18.922 27.9449L21.102 32.653L23.933 32.847V32.7159L24.448 32.8949L32.793 35.7939L33.785 34.3089L34.727 29.5919L34.745 29.4969L34.809 29.4209L35.873 28.1209L37.604 25.2339L37.703 23.1779L35.395 21.8549L35.23 21.7599L35.203 21.571L34.871 19.127L33.448 18.3259L32.685 19.5639L32.576 19.739L32.368 19.7469L26.748 19.9779L26.123 21.5439L26.006 21.8319L25.695 21.782L22.82 21.3019L22.629 21.2699L22.539 21.1029L19.542 15.468L19.509 15.4039L19.502 15.3219L18.675 7.06995L12.231 0.543945Z" fill="#FFC100"/>
</svg>
