<svg width="63" height="91" viewBox="0 0 63 91" fill="none" xmlns="http://www.w3.org/2000/svg">
<path fill-rule="evenodd" clip-rule="evenodd" d="M14.387 49.0379L16.132 38.3149L18.643 41.8709L17.597 49.4039L20.734 56.0979L21.569 67.1849L25.962 73.8809L27.007 80.7809L43.325 90.6149L53.365 88.7319L60.898 78.4819L62.988 67.6049L59.641 54.6329L60.061 35.8049L57.97 28.9029L52.739 20.5359L51.904 14.0499L54.204 12.5869L57.343 16.9779L60.481 14.8859L57.55 9.23994L46.463 1.70594L30.567 0.242943L27.427 2.54494L19.478 7.14694L19.686 13.4219L14.247 22.2069L3.57996 22.4169L0.0249634 26.8869L7.83197 37.2939L7.93597 37.4339L7.90097 37.6039L6.66696 43.7799L13.127 47.0109L13.229 47.0609L13.287 47.1619L14.387 49.0379Z" fill="#3CB371"/>
</svg>
