<svg width="139" height="96" viewBox="0 0 139 96" fill="none" xmlns="http://www.w3.org/2000/svg">
<path fill-rule="evenodd" clip-rule="evenodd" d="M138.522 70.4939L134.538 63.1549L124.078 51.8589H116.129L115.084 56.4599L114.874 63.3649L109.225 66.7119L106.085 66.0849L103.995 69.2209L100.022 66.0849L104.624 61.9009V57.2989L89.77 57.0889L82.45 51.6499L71.151 52.6969L67.178 47.2569L73.872 46.6309L77.429 39.7269L68.433 37.6339L64.25 42.6559L62.157 38.8899L39.147 33.2409L36.217 36.1699L32.869 33.0309L20.738 40.1449L14.46 34.0769L16.345 28.6399L14.46 23.1989L21.991 20.6889L28.896 25.4999L32.243 20.0619L32.033 10.2299L22.829 0.189941L20.111 10.0219L7.55801 18.1789L6.513 24.4549L0.515991 29.8719L2.87 42.4159L9.452 52.2909L15.484 53.0459L15.659 53.0669L15.758 53.2139L19.018 57.9819L41.366 60.3829L46.456 58.7899L46.638 58.7319L46.799 58.8459L98.66 95.8909L110.308 94.9449L114.4 90.2249L114.555 90.0459L114.783 90.0999L120.071 91.3439L124.437 87.2889L124.552 87.1839H124.703H128.044L129.868 84.4529L130.007 84.239L130.259 84.2859L133.538 84.8819L136.203 80.1499L133.403 75.1719L133.245 74.8909L133.493 74.683L138.522 70.4939Z" fill="#CDCDCD"/>
<path fill-rule="evenodd" clip-rule="evenodd" d="M120.144 49.0129L115.495 49.5029L111.83 43.3879L112.806 37.7619L118.677 36.2939L120.388 42.6539L120.144 49.0129Z" fill="#CDCDCD"/>
</svg>
