<svg width="72" height="44" viewBox="0 0 72 44" fill="none" xmlns="http://www.w3.org/2000/svg">
<path fill-rule="evenodd" clip-rule="evenodd" d="M0.00195312 13.7459L1.53896 17.9389L2.60596 20.8219L9.32095 27.6199L9.41896 27.718L9.43196 27.8559L10.2619 36.1649L13.134 41.5659L15.511 41.9619L16.115 40.455L16.2079 40.2199L16.461 40.2099L22.125 39.9779L22.976 38.5949L23.171 38.2759L23.498 38.4599L25.4129 39.5399L25.5829 39.6349L25.61 39.8289L25.942 42.2709L28.08 43.4919L32.7639 40.1429L33.349 33.851L33.373 33.5819L33.63 33.511L39.705 31.7919L39.991 22.713L40.003 22.3539L40.364 22.338L45.851 22.0989L48.8049 19.7369L49.021 19.5639L49.254 19.7109L55.169 23.4229L59.8389 16.8839L60.065 16.5649L60.384 16.7969L65.94 20.8139L69.806 19.1069L71.4949 17.0999L68.2049 12.812L61.435 5.92694L57.669 4.27893L57.514 4.20993L57.458 4.05194L56.2299 0.589935L52.0659 0.47995L50.371 1.60895L50.2729 1.67493L50.151 1.67194L35.875 1.55695L32.6109 3.42194L32.3589 3.56293L32.149 3.36594L30.237 1.56894L25.92 1.90094L24.1069 4.50195L24.017 4.63394L23.862 4.66595L20.932 5.25095L12.8419 10.1289L12.756 10.1799L12.653 10.1849L5.56096 10.4209L0.00195312 13.7459Z" fill="#3CB371"/>
</svg>
