<svg width="53" height="49" viewBox="0 0 53 49" fill="none" xmlns="http://www.w3.org/2000/svg">
<path fill-rule="evenodd" clip-rule="evenodd" d="M15.705 0.575943L13.8159 2.08694L12.675 5.05495L12.9129 14.8809L12.921 15.1689L12.646 15.2589L5.39096 17.5989L4.94196 20.9759L4.89995 21.2849L4.58896 21.3119L2.20496 21.5319L1.55095 23.9259L1.52396 24.0299L1.44995 24.1009L0.397949 25.1549L2.87595 27.6389L7.52895 31.0059L16.5269 33.3589L16.619 33.3829L16.688 33.4439L19.7449 36.1249L28.472 36.8739L29.065 33.6649L29.0919 33.5209L29.21 33.4259L30.92 32.1109L31.1479 31.9329L31.384 32.1009L35.459 34.9999L35.574 35.0829L35.613 35.2279L36.5009 38.9169L41.278 42.8239L45.466 42.5689L45.629 42.5609L45.748 42.6689L52.282 48.4879L52.589 45.502L51.455 41.8399L48.49 38.6109L48.2859 38.3909L48.448 38.1379L51.269 33.7719L50.766 28.9729L48.168 23.8989L48.104 23.7769L48.131 23.6449L48.838 20.0989L46.358 19.7609L46.097 19.7239L46.033 19.4669L45.447 17.1179L41.009 16.9959L40.7859 16.9899L40.6799 16.7959L39.363 14.4239L39.2619 14.2379L39.358 14.0539L40.49 11.9159L40.257 9.12094L36.823 7.97194L35.808 9.32895L35.675 9.50694L35.4539 9.48494L33.086 9.21994L32.962 9.20595L32.871 9.12395L30.505 7.00194L26.738 7.50494L26.478 7.54094L26.3479 7.31194L24.175 3.46794L21.6929 2.28394L17.394 4.43794L16.9859 4.64194L16.851 4.20395L15.705 0.575943Z" fill="#FFEA00"/>
</svg>
