<svg width="92" height="79" viewBox="0 0 92 79" fill="none" xmlns="http://www.w3.org/2000/svg">
<path fill-rule="evenodd" clip-rule="evenodd" d="M0.144958 48.3129L10.969 48.5549L6.57397 53.1589L15.639 68.1389L19.983 65.5909L20.189 65.4749L20.387 65.5959L23.65 67.6389L25.615 66.262L25.793 66.1359L25.99 66.2209L30.421 68.121L51.1689 60.991L51.436 60.8969L51.608 61.1259L56.829 68.0909L56.882 68.158L56.9 68.2339L57.959 72.6909L63.698 78.226L71.48 70.655L71.724 70.416L71.9919 70.6279L74.799 72.8329L77.3879 70.8439L77.5099 70.7499L77.663 70.7629L86.627 71.6179L91.162 67.4949L91.3749 39.7739H87.7729L82.662 44.0319L82.349 44.2919L82.1039 43.973L79.929 41.1409L79.838 41.0259L79.848 40.8799L80.476 30.4019L65.429 29.9789L65.2029 29.9689L65.099 29.7769L62.381 24.7619L54.568 24.9739L54.2629 24.9839L54.183 24.687L52.678 19.1049L47.779 12.7139L21.439 0.177948V8.70294V8.92395L21.246 9.03595L16.278 11.933L17.727 17.5249L17.865 18.0479L17.326 18.011L10.889 17.584L5.87598 19.6729L2.94797 24.8969L3.59497 40.0209L3.60098 40.103L3.56598 40.1879L0.144958 48.3129Z" fill="blue"/>
</svg>
