<svg width="64" height="90" viewBox="0 0 64 90" fill="none" xmlns="http://www.w3.org/2000/svg">
<path fill-rule="evenodd" clip-rule="evenodd" d="M2.40292 49.1619L5.42892 50.041L5.63693 55.4779L3.75394 57.571L5.00894 61.3389L0.825928 66.15L1.66394 69.705L10.6599 71.7949L11.0779 76.606L15.4709 76.817L18.8169 77.6539L22.1639 81.4169L17.3519 85.3929V88.741L22.1639 87.278L26.3479 89.5789L30.1119 88.741L33.252 86.0229L42.2639 84.3849L45.8089 75.968L45.1599 60.817L45.1529 60.7079L45.2079 60.6149L48.2529 55.1719L48.321 55.0549L48.4449 55.002L53.6659 52.8259L53.7529 52.791L53.8409 52.7999L59.8319 53.196L58.4439 47.8449L58.368 47.5609L58.6259 47.4119L63.6519 44.4779V23.3139L60.0589 19.511L59.825 19.2589L60.0409 18.998L63.8529 14.334L63.5139 11.4399L56.4289 16.3009L56.3229 16.373L56.1969 16.368L50.7529 16.1469L50.6599 16.1449L50.5779 16.0989L45.2569 13.1199L39.5099 13.9709L39.3559 13.993L39.2279 13.9019L31.683 8.50995L28.2859 7.87393L27.6909 7.76395L28.0399 7.26694L30.4599 3.83893L26.8289 0.205933L19.8059 7.01993L19.17 13.4079L19.1589 13.5249L19.0799 13.6129L17.0329 16.0729L17.5829 18.08L21.9679 19.7499L22.1349 19.812L22.1939 19.9789L23.7179 24.1149L23.756 24.2189L23.7309 24.3309L22.8609 28.2469L22.8479 28.3139L22.8089 28.3719L21.2869 30.7679L21.144 30.9919L20.8829 30.9389L15.657 29.8959L11.743 34.2199L10.6779 39.1249L10.6519 39.2439L10.5639 39.3289L3.66394 45.795L2.40292 49.1619Z" fill="#DEDEDE"/>
</svg>
