<svg width="90" height="105" viewBox="0 0 90 105" fill="none" xmlns="http://www.w3.org/2000/svg">
<path fill-rule="evenodd" clip-rule="evenodd" d="M1.11096 26.761L0.886963 31.5089L3.39597 37.5769L6.32597 36.95L8.41696 35.0659L12.812 37.157L12.602 40.088L11.347 42.808L12.812 44.4789L16.993 45.9439L18.668 51.7999L20.341 59.123L18.458 63.7269L20.341 67.4899L25.154 64.5649L27.245 65.1899L28.71 68.3259L29.755 73.769L32.891 76.0689L36.66 73.5569L40.215 73.769L46.908 76.6949L46.698 79.8319L48.162 82.343L51.51 82.9739L54.23 80.0429L57.16 82.9739L60.924 85.274L60.088 91.1299L60.924 94.478L64.69 98.6589L67.827 99.707L70.966 97.8229L73.476 98.6589L75.359 102.427L83.098 104.938L86.444 102.427L89.794 97.616L83.875 84.6619L83.345 84.3009L83.239 84.2239L83.196 84.0979L81.901 80.218L81.814 79.9579L82.031 79.7919L85.245 77.2759L86.021 74.9489L84.433 71.506L76.139 68.968L72.28 69.9879L70.28 74.6969L70.168 74.9569L69.883 74.929L64.878 74.4449L64.737 74.4309L64.641 74.3319L60.08 69.7719L51.645 67.8459L51.47 67.8059L51.387 67.644L49.557 64.1019L49.43 63.8569L49.619 63.6599L52.908 60.1449L50.842 57.9669L50.725 57.8439L50.733 57.679L50.855 55.4809L50.871 55.2069L51.134 55.131L54.167 54.2299L54.493 49.0769L50.154 49.2919L48.042 50.7009L47.515 51.0519L47.44 50.424L46.707 44.3189L46.672 44.0159L46.954 43.9089L48.917 43.144L49.138 39.5259L47.17 37.33L47.068 37.2119L47.073 37.0589L47.313 28.524L44.946 25.213L44.874 25.1089V24.9869V13.5949L42.588 8.54593L42.536 8.42194L42.564 8.29694L43.617 3.73395L40.601 0.33493L40.475 0.866943L40.47 0.887939L38.91 6.04193L38.901 6.07895L38.882 6.11395L37.683 8.38693L37.63 8.48895L37.527 8.54993L28.638 13.528L26.415 17.6239L26.338 17.7639L26.187 17.8089L20.076 19.7249L20.044 19.7329L20.017 19.7379L16.89 20.2029L10.626 25.6409L10.53 25.7239L10.401 25.7339L1.34796 26.442L1.11096 26.761Z" fill="#CDCDCD"/>
</svg>
