<svg width="38" height="46" viewBox="0 0 38 46" fill="none" xmlns="http://www.w3.org/2000/svg">
<path fill-rule="evenodd" clip-rule="evenodd" d="M13.384 0.85495L11.038 0.953949L10.966 0.95694L10.897 0.931946L8.29797 0.0329285L3.82198 5.34094L2.85696 11.0199L2.74797 19.6539L2.74597 19.7749L2.67397 19.8779L1.24896 21.851L1.19496 21.9279L1.11298 21.9729L0.120972 22.4809L6.54398 32.6039L11.029 33.0629L11.229 33.0849L11.33 33.2569L12.767 35.7709L12.819 35.8629V35.9669V38.8589L21.793 44.1049L30.523 45.6209L37.021 39.4669L37.655 37.6769L36.054 34.588L35.932 34.3499L36.111 34.153L37.929 32.1029V23.623L34.815 23.4129L34.585 23.394L34.486 23.187L32.299 18.4559L27.286 17.5649L25.628 19.0009L25.277 19.3029L25.039 18.907L21.922 13.7529L21.875 13.6759L21.869 13.588L21.417 7.82996H16.144H15.872L15.777 7.56995L13.384 0.85495Z" fill="#CDCDCD"/>
</svg>
