<svg width="66" height="118" viewBox="0 0 66 118" fill="none" xmlns="http://www.w3.org/2000/svg">
<path fill-rule="evenodd" clip-rule="evenodd" d="M19.9929 49.629L19.193 74.0469L23.583 81.5759L6.43298 83.0439L0.782959 95.3859L16.683 111.702L17.103 117.769L25.8829 109.402L40.943 109.609L51.823 100.823L58.313 87.8549L61.453 52.2889L65.843 33.6719L62.923 11.887L58.6229 10.668L58.3929 10.6049L58.343 10.3699L57.303 5.15991L50.153 0.0499268L42.1429 6.05396L46.8929 11.2029L54.473 11.838L54.8829 11.8699L54.823 12.278L53.103 24.075L53.063 24.3989L52.7329 24.4089L47.3629 24.6119L48.173 32.1329L48.203 32.3669L48.0029 32.4969L40.283 37.6459L40.193 37.7009L40.093 37.71L27.403 38.5549L24.213 42.728L26.683 47.6559L26.913 48.1019L26.423 48.2109L19.9929 49.629Z" fill="red"/>
</svg>
