<svg width="66" height="70" viewBox="0 0 66 70" fill="none" xmlns="http://www.w3.org/2000/svg">
<path fill-rule="evenodd" clip-rule="evenodd" d="M46.683 0.393951L46.598 2.49194L40.116 2.28494L37.605 6.04694L34.257 6.46594L30.2838 13.5789L23.5912 16.0899L18.7785 8.97894L7.4817 7.50995L2.25071 12.9519L13.5476 19.6459L10.2013 21.9449L4.3437 18.39L0.986206 21.0309L2.9911 24.993H7.10831H7.2942L7.4128 25.1369L12.352 31.235L12.5123 31.437L12.3953 31.6629L8.7365 38.7019L13.5139 44.6039L13.6726 44.7959L13.5604 45.0219L12.4338 47.2769L12.1581 51.9839L14.9659 55.433L17.5686 52.4409L17.7449 52.2369L17.9981 52.3319L22.3428 53.9619L23.9214 51.3319L24.0944 51.045L24.4022 51.1759L27.8894 52.6249L28.1314 52.7229V52.9839V58.2599L32.263 60.1909L32.487 60.2939V60.5399V65.6589L34.628 69.1349L39.701 68.6029L41.347 65.5819L41.459 65.3799H41.69H49.942L54.942 59.8259L54.697 57.1119L50.07 56.5679L49.748 56.5309L49.725 56.2069L49.443 52.2499L45.148 46.239L45.042 46.0899L45.092 45.9089L47.368 37.653L44.562 33.4399L44.329 33.0939L44.691 32.8869L50.793 29.3999L51.051 29.256L51.262 29.4619L53.462 31.6629L57.714 31.3979L60.177 26.4739L59.317 18.1559L59.291 17.9219L59.492 17.7919L65.974 13.5639L64.873 3.37793L59.814 3.11194L56.148 5.65094L55.935 5.79993L55.716 5.65994L51.652 3.04495L46.683 0.393951Z" fill="#FFEA00"/>
</svg>
