<svg width="42" height="34" viewBox="0 0 42 34" fill="none" xmlns="http://www.w3.org/2000/svg">
<path fill-rule="evenodd" clip-rule="evenodd" d="M7.46597 3.01694L3.31396 7.48993L1.29597 10.2539L0.995972 12.1389L2.01997 14.9049L5.11597 17.3579L5.20897 17.4319L5.24597 17.5459L6.12297 20.2879L6.14197 20.3519L6.14098 20.416L6.06796 23.0939L10.378 23.3089L10.596 23.3189L10.7 23.511L13.279 28.2419L15.893 29.748L17.545 29.261L19.912 27.756L20.191 27.5779L20.409 27.8239L24.402 32.248L27.085 33.1779L29.505 33.0769L37.518 25.929L37.534 25.916L37.557 25.9019L41.807 22.8959L40.815 20.213V20.2109L39.18 15.7509L30.97 1.92194L25.962 1.71796L24.217 3.25894L23.992 3.45895L23.745 3.29193L21.768 1.97495L21.761 1.96893L19.811 0.602936L18.832 1.40393L18.763 1.45895L18.678 1.47995L15.17 2.35593L15.04 2.39194L14.917 2.33395L12.957 1.45593L11.612 2.70395L11.506 2.79993L11.367 2.80695L7.46597 3.01694Z" fill="#FFEA00"/>
</svg>
