<svg width="93" height="125" viewBox="0 0 93 125" fill="none" xmlns="http://www.w3.org/2000/svg">
<path fill-rule="evenodd" clip-rule="evenodd" d="M18.0029 44.0249L17.703 43.3129L30.043 50.011L34.0229 60.4659L40.083 68.2069L47.403 79.9229L52.6329 88.499L58.703 93.103L60.583 98.5399L62.2629 103.352L69.793 106.908L70.833 114.437L78.573 124.273L79.203 115.694L78.153 109.207L84.223 108.79L86.5229 107.745L92.173 110.675L87.573 101.052H80.8729L73.7629 97.916L65.603 92.054L60.3729 78.6689L57.443 70.088L63.723 66.5339L75.433 65.9079L49.083 48.1239L30.463 31.39L21.8829 15.2799L10.173 7.12393L4.73291 0.21994L0.973022 1.89493L0.132935 5.86993L7.03296 10.6809L10.793 16.3279L8.703 19.0479L5.35303 18.2099L4.31299 23.0219L11.0029 28.0399L17.703 43.3129L17.153 43.0889L18.0029 44.0249Z" fill="#CDCDCD"/>
</svg>
