<svg width="327" height="361" viewBox="0 0 327 361" fill="none" xmlns="http://www.w3.org/2000/svg">
<path fill-rule="evenodd" clip-rule="evenodd" d="M296.223 0.602936L294.093 4.73894L282.583 11.2249L274.223 3.27495L265.853 2.43794L253.928 10.1789L245.772 20.2209L242.841 30.4699L237.403 32.1429L230.708 28.7959L224.225 29.4229L220.877 33.8169L217.948 31.3059L215.226 34.2369L211.883 31.0979L216.689 26.2869L205.397 25.4499L198.912 31.0979L202.466 43.2309L195.982 49.5049V40.0929H191.588L187.195 44.0679L186.151 39.2549L192.637 33.3989L185.732 33.8169L165.231 44.2779L169.205 49.0889L163.348 54.7359L165.649 58.9189L169.835 56.8279L170.253 62.8949L175.273 68.7529L167.531 70.6339L165.231 73.7739L167.324 78.7929L161.05 79.8399L152.681 77.3299L150.171 86.7419L135.943 84.2309V105.15L125.904 103.479L110.421 89.4619L116.069 85.4879L106.658 71.4709L100.591 68.5429L91.387 71.6789L81.137 67.7059L79.67 83.6059L61.054 91.5549L53.943 86.7419L54.9869 82.9779L35.952 82.7679L30.928 89.4619L29.673 93.8559L28.421 87.3709L24.86 84.2309L20.681 88.6249L14.879 91.5249L14.5569 95.5099L17.269 99.1229L17.322 99.1959L17.3409 99.2849L18.569 105.729L27.535 118.409L27.607 118.511V118.631V126.888L32.181 132.375L32.438 132.682L32.1249 132.93L21.679 141.225L21.077 146.041L21.062 146.132L21.0129 146.209L18.564 149.881L16.719 158.819L16.642 159.17L16.291 159.128L11.1689 158.525L2.90094 165.26L2.86896 165.285L2.83398 165.304L0.0569458 166.739L6.61298 176.765L6.66895 176.848L6.67694 176.946L8.90497 204.969L8.91895 205.133L8.80695 205.259L3.04095 211.635L6.84399 214.563L7.03796 214.71L6.98798 214.951L5.435 222.396L8.80695 226.074L8.90497 226.183V226.336V231.542L12.881 234.293L13.128 234.467L13.0229 234.753L11.11 239.842L11.088 239.91L11.047 239.959L5.07098 247.194L4.49396 252.373H14.248H14.382L14.49 252.46L18.727 255.785L23.267 252.76L23.566 252.562L23.79 252.841L26.338 256.024L26.54 256.285L26.522 256.303L29.857 261.358L30.074 261.686L29.74 261.903L25.96 264.306V268.781L30.146 269.105L33.6349 266.659L33.999 266.407L34.201 266.799L38.5259 275.09L38.576 275.18L38.572 275.284L38.22 285.137L43.779 288.266L44.0359 288.41L43.968 288.697L41.473 299.018L44.595 305.944L51.634 308.055L52.047 308.181L51.877 308.582L46.4969 321.14L45.43 336.763L50.8409 342.511L56.692 338.037L56.7859 337.965L56.913 337.961L65.705 337.61L68.8409 332.027L69.093 331.583L69.457 331.944L74.205 336.692L80.386 329.485L90.094 308.627L90.18 308.444L90.382 308.407L96.874 307.326L96.982 307.31L97.081 307.35L109.697 312.395L109.863 312.462L109.921 312.634L112.667 320.874L120.205 317.445L120.404 317.355L120.59 317.48L125.274 320.727L125.364 320.789L125.409 320.889L133.898 340.139L144.93 360.587L151.871 356.045L151.903 356.023L151.939 356.01L159.149 353.124L159.36 353.039L159.54 353.183L165.05 357.662L168.043 354.996L168.309 354.763L168.569 355L172.981 359.074L177.041 355.015L177.158 354.893L177.329 354.898L187.421 355.262L187.551 355.266L187.65 355.343L193.966 360.255L206.378 355.646L206.591 355.569L206.761 355.714L210.898 359.161L227.978 351.332L228.097 351.274L228.222 351.302L233.155 352.359L238.517 350.351L237.85 346.341L237.799 346.063L238.052 345.931L251.268 339.059L247.963 329.743L247.881 329.522L248.045 329.349L252.482 324.592L250.646 320.001L242.192 314.473L241.9 314.281L242.062 313.97L246.509 305.386L238.237 299.662L237.881 299.413L238.165 299.09L242.017 294.588V275.648V275.384L242.269 275.284L258.493 269.121L259.123 261.794L259.153 261.462L259.493 261.438L269.103 260.8L271.293 254.857L270.973 248.687L270.963 248.426L271.193 248.314L275.833 246.152L272.343 233.772L265.883 229.244L265.643 229.086L265.723 228.82L269.963 213.805L264.093 198.131L264.013 197.927L264.143 197.758L267.433 193.479L267.603 193.257L267.863 193.347L279.283 197.261L286.573 195.676L289.123 191.219L289.213 191.055L289.403 191.028L298.033 189.748L299.573 184.211L285.213 154.405L285.153 154.286L285.183 154.161L286.633 146.874L286.663 146.724L286.793 146.632L296.423 139.836L292.793 132.85L292.663 132.589L292.873 132.387L302.203 123.643L302.293 123.551L302.423 123.54L310.733 122.68L315.493 117.351L316.343 108.054L310.953 103.232L310.833 103.121L310.823 102.959L310.533 96.9489L307.093 91.7909L306.913 91.5149L307.153 91.2909L311.253 87.4619L306.833 82.2069L306.593 81.9219L306.863 81.6719L317.653 71.7609L317.693 71.7149L317.763 71.6889L322.613 69.6919L326.213 64.4339L319.413 50.2879H310.923H310.843L310.763 50.2539L304.063 47.3399L303.913 47.2749L303.853 47.1219L300.353 38.0869L300.273 37.8719L300.423 37.6959L314.023 21.7749V13.9509L296.223 0.602936Z" fill="#FFEA00"/>
</svg>
