<svg width="48" height="41" viewBox="0 0 48 41" fill="none" xmlns="http://www.w3.org/2000/svg">
<path fill-rule="evenodd" clip-rule="evenodd" d="M0.286987 12.308L0.502991 15.2319L1.79399 20.274L5.45598 24.8789L5.55199 25.0049L5.54099 25.153L5.07399 30.7699L8.22798 35.3289L8.28299 35.4059L8.29198 35.4959L8.65298 38.0119L8.65799 38.0429L8.65398 38.084L8.55298 40.6419L17.222 39.9659L23.475 34.5379L23.56 34.4609L23.673 34.4409L26.878 33.9689L32.812 32.1059L35.013 28.0519L35.066 27.9519L35.163 27.8979L44.053 22.92L45.18 20.782L46.723 15.6729L47.281 13.3329L42.851 6.92795L40.957 5.23993L38.93 6.62595L38.864 6.67093L38.789 6.68893L36.989 7.04593L36.739 7.09894L36.595 6.88794L32.989 1.70795L31.899 2.51993L27.367 7.29294L27.328 7.33295L27.282 7.35995L24.645 8.91794L24.509 8.99796L24.352 8.95795L20.996 8.12195L20.906 8.09894L20.836 8.03494L15.7 3.49796L12.233 0.954956L9.02898 1.29794L3.69298 1.99493L1.57698 5.00095L1.48299 6.31696L3.16899 7.15695L3.42699 7.28293L3.37698 7.56696L2.77898 11.0459L2.74199 11.2549L2.54698 11.338L0.286987 12.308Z" fill="#CDCDCD"/>
</svg>
