<svg width="68" height="77" viewBox="0 0 68 77" fill="none" xmlns="http://www.w3.org/2000/svg">
<path fill-rule="evenodd" clip-rule="evenodd" d="M24.146 61.1039L28.142 64.907L27.722 69.0869L26.679 72.437L28.977 76.623L33.579 74.5309L35.881 69.924L38.602 66.9989L45.088 68.2549L48.644 65.3239L51.152 65.114L53.035 66.5819L59.521 66.1619L64.332 64.907L67.565 64.1909L67.76 63.9299L67.874 61.0899L67.531 58.696L64.348 54.0989L64.27 53.9819L64.278 53.843L64.747 48.243L61.13 43.692L61.076 43.6249L61.055 43.5459L59.737 38.3919L59.729 38.3579L59.728 38.3229L59.503 35.3439L56.518 34.3489L56.478 34.334L56.455 34.3229L47.585 29.528L47.384 29.4209L47.38 29.1949L47.267 24.3609L38.594 22.8579L38.524 22.8449L38.464 22.8129L29.233 17.4169L29.041 17.3049V17.084V14.067L27.752 11.817L23.279 11.3539L23.09 11.3349L22.993 11.1779L16.425 0.838928L7.69199 5.34393L7.64099 5.37195L7.58199 5.37994L2.52098 6.25793L2.13298 12.5989L2.12299 12.7629L2.00299 12.8649L0.60498 14.1169L1.00899 19.1639L3.63599 22.597L7.56099 23.42L7.66998 23.4439L7.75198 23.5229L14.816 30.3759L14.935 30.4859V30.6549V35.7889V35.9339L14.835 36.0459L11.715 39.584L11.529 42.9189L14.05 43.0989L16.96 41.8519L17.48 41.6259L17.502 42.2L17.712 47.8619L19.483 50.4229L23.61 51.2449L23.916 51.3089L23.924 51.6199L24.146 61.1039Z" fill="red"/>
</svg>
