<svg width="48" height="41" viewBox="0 0 48 41" fill="none" xmlns="http://www.w3.org/2000/svg">
<path fill-rule="evenodd" clip-rule="evenodd" d="M18.244 1.53894L17.305 3.21594L10.399 7.18994L6.84399 12.8389L3.07999 20.5779L2.66099 26.8529L3.70599 30.6199L0.986992 33.9669L0.817993 36.5529L0.923988 36.6319L7.51599 37.058L10.174 35.8879L10.25 35.8559H10.336L15.556 35.9639L18.402 33.3289L18.526 33.2149L18.686 33.2249L22.526 33.4439L22.802 33.459L22.875 33.7249L24.492 39.2759L25.928 38.433L26.047 38.3629L26.181 38.3819L29.034 38.821L29.199 38.8479L29.292 38.9839L30.699 40.993L38.166 40.2549L42.628 37.3869L47.575 30.2899L47.766 28.5789L44.362 24.4279L44.291 24.3409L44.275 24.2339L43.764 20.4569L35.381 18.9709L35.292 18.9569L35.219 18.9019L31.161 15.9389L31.086 15.886L31.045 15.8069L25.672 5.71695L25.662 5.69995L25.656 5.68494L23.955 1.64694L22.343 0.793945L19.091 1.63394L19.01 1.65494L18.936 1.64294L18.244 1.53894Z" fill="#CDCDCD"/>
</svg>
