<svg width="42" height="61" viewBox="0 0 42 61" fill="none" xmlns="http://www.w3.org/2000/svg">
<path fill-rule="evenodd" clip-rule="evenodd" d="M15.7036 1.65695L12.8092 4.02893L12.4502 4.31793L12.2243 3.91995L10.0736 0.158936L7.40356 1.37393L7.13756 3.76794L7.12146 3.90894L7.02536 4.00195L4.41146 6.61295L6.71766 8.66394L6.94676 8.86694L6.80256 9.13693L4.58616 13.2919L6.20156 15.7139L6.46926 16.114L6.02366 16.2889L1.80076 17.9779L0.0683594 21.4429L5.05896 30.86L5.22396 31.1689L4.93066 31.3629L1.62766 33.5649L1.90016 39.8649L10.3845 47.4999H14.8862H15.1731L15.2564 47.7759L16.71 52.4229L16.7597 52.5869L16.6748 52.7339L15.2436 55.2059L19.3912 58.549L24.2071 58.834L24.393 58.847L24.5036 59.0009L25.8738 60.9619L28.9076 59.0809L27.611 56.493L27.47 56.209L27.7216 56.0099L31.7875 52.8159L31.8997 52.726L32.0439 52.7339L38.877 53.0179L41.237 51.183L41.515 45.024L40.086 39.0259L35.7556 31.2289L35.6915 31.1069L35.7123 30.976L36.852 24.14L32.8548 17.2839L32.8404 17.2639L32.826 17.2249L31.1512 12.765L27.2729 11.6539L27.1415 11.6169L27.0597 11.4999L25.1703 8.79993L22.2182 9.33994L21.9923 9.38193L21.8496 9.20093L15.7036 1.65695Z" fill="#CDCDCD"/>
</svg>
