<svg width="90" height="102" viewBox="0 0 90 102" fill="none" xmlns="http://www.w3.org/2000/svg">
<path fill-rule="evenodd" clip-rule="evenodd" d="M68.3399 0.0249329L66.2979 3.52194L64.8329 6.87494L64.812 6.91895L64.7869 6.95496L58.0669 15.851L58.0509 15.8719L58.0269 15.8959L47.9449 25.7789L47.894 25.8289L47.8329 25.8559L39.3519 29.7139L39.17 33.5209L41.8899 38.7639L42.0099 38.9989L41.8369 39.196L38.1619 43.4539L37.5819 49.067L37.571 49.179L37.4989 49.2699L35.1239 52.2369L35.0159 52.3709L34.8399 52.381L26.8329 52.7619L25.713 57.8069L25.6799 57.9659L25.545 58.0529L22.183 60.226L21.9039 60.4049L21.6809 60.1589L18.4679 56.5899L13.9999 63.6649L13.8969 63.8269L13.7099 63.8449L6.35394 64.6189L0.0489502 72.0769L1.16895 75.5469L4.08392 77.8789L11.1969 81.0119L13.5089 81.3579L15.9529 80.7409L16.1499 80.6929L16.3009 80.8229L28.3049 91.1129L30.9309 91.769L32.6619 90.7029L32.9149 90.549L33.1349 90.756L36.4399 93.916L36.5309 94.006L36.5569 94.1259L36.9749 96.36L45.2569 93.8259L45.377 93.7899L45.4959 93.8309L52.9739 96.4179L53.0829 96.455L53.1519 96.549L56.407 100.748L60.4319 98.735L60.6059 98.6519L60.7749 98.7299L66.6809 101.545L69.614 100.726L69.4249 94.3069L69.4229 94.213L69.463 94.131L72.8219 87.015L72.9309 86.7859L73.1879 86.791L85.0129 87.1769L89.1239 80.0809L86.0969 75.5339L86.0209 75.4219L86.0339 75.2869L86.4289 70.9349V70.9149L87.5789 63.058L79.489 57.8539L79.3819 57.7869L79.3349 57.6679L77.9519 54.1089L77.8709 53.8969L78.0149 53.7209L82.6419 48.131L81.6859 43.3689V43.3659L80.1079 34.8629L80.0759 34.6989L80.174 34.5649L84.049 29.1379L83.8579 22.817L79.3879 12.1299L71.7889 7.64493L71.644 7.56195L71.6109 7.39395L70.446 2.16794L68.3399 0.0249329Z" fill="#3CB371"/>
</svg>
