<svg width="33" height="38" viewBox="0 0 33 38" fill="none" xmlns="http://www.w3.org/2000/svg">
<path fill-rule="evenodd" clip-rule="evenodd" d="M15.0419 0.868927L15.026 1.47293L15.0229 1.63794L14.901 1.74994L11.282 5.03995L11.237 5.07996L11.181 5.10593L5.37195 7.79495L4.10695 10.0309L5.00896 11.9349L5.03195 11.9809L5.03995 12.0439L5.58995 15.554L5.60695 15.6609L5.56395 15.765L4.57695 18.0649L4.51695 18.2039L4.38095 18.2669L0.91095 19.8689L0.532959 25.8019L3.88295 28.256L3.89395 28.2659L3.91795 28.2859L6.35596 30.597L6.46796 30.7L6.47696 30.8519L6.73695 34.881L10.248 37.519L15.391 36.6259L25.675 31.3219L26.975 29.5249L27.082 20.9819V20.95L27.085 20.924L28.074 15.1079L28.0939 15.0039L28.159 14.924L32.659 9.58694L29.047 5.58493L26.9109 6.94595L26.864 6.97495L26.813 6.99094L24.948 7.53995L24.789 7.58395L24.645 7.50394L21.7919 5.85593L21.699 5.80194L21.646 5.70496L19.119 1.07193L15.0419 0.868927Z" fill="#CDCDCD"/>
</svg>
