<svg width="62" height="59" viewBox="0 0 62 59" fill="none" xmlns="http://www.w3.org/2000/svg">
<path fill-rule="evenodd" clip-rule="evenodd" d="M42.7679 3.37494L39.752 6.18793L39.4009 6.51593L39.1539 6.10294L37.032 2.56894L31.0299 0.687927L22.3779 1.88995L19.1949 3.14896L19.1899 3.18594L18.9289 3.24893L13.2229 4.67593L10.6849 6.11093L10.1109 10.3549L10.0739 10.6479L9.77594 10.6879L4.17993 11.4059L0.241943 12.5339L0.884933 14.1239L5.66994 14.3479L5.86093 14.3579L5.96994 14.515L9.81793 19.993L16.7039 20.4609L17.0359 20.4829L17.0679 20.8159L17.4269 24.8949L17.4399 25.0509L17.3309 25.179L15.9849 26.7299L19.1399 30.6249L19.1659 30.6049L19.3949 30.9339L23.0829 36.2369L24.5559 35.9439L26.7659 34.4319L27.0169 34.261L27.2459 34.463L29.4039 36.381L29.4339 36.407L29.4639 36.4479L34.0159 43.0419L34.1169 43.1859L34.0779 43.3529L33.8219 44.4149L37.3369 48.3669L37.4729 48.5159L37.4229 48.713L36.3569 53.3459L38.5179 58.1259H39.4789L40.8399 55.0599L42.5499 51.2759L42.6589 51.0349L42.92 51.045L45.8499 51.1669L45.9519 51.17L46.0389 51.2249L49.8789 53.5979L50.7969 52.3139L50.1089 48.0829L47.3879 45.364L47.252 45.2239L47.2789 45.032L47.8899 40.7599L47.946 40.3829L48.321 40.4279L55.4429 41.2719L61.2349 39.4179L61.9909 34.67L59.937 34.3649L59.7909 34.3409L59.6979 34.2289L58.3529 32.6449L58.0839 32.325L58.4219 32.0779L61.4639 29.8539L61.6209 28.8229L58.9729 28.5089L58.696 28.472L58.6389 28.2009L58.2699 26.493L58.2399 26.3489L58.312 26.222L59.8549 23.4669L58.8629 22.7199L53.7119 25.5329L53.5849 25.5999L53.4479 25.575L47.3449 24.3549L47.1799 24.3179L47.0919 24.1759L44.5269 20.0249L44.4989 19.9779L44.4869 19.9379L42.8989 14.933L42.8849 14.8799L42.8819 14.8159L42.7679 3.37494Z" fill="red"/>
</svg>
