<svg width="107" height="68" viewBox="0 0 107 68" fill="none" xmlns="http://www.w3.org/2000/svg">
<path fill-rule="evenodd" clip-rule="evenodd" d="M3.91998 58.4009L30.8409 48.2789L40.463 47.653L42.136 50.1589L56.569 53.2969L57.6169 59.783L63.055 62.5029L78.326 64.176L84.394 65.0139L87.53 67.944L92.343 66.2689L96.736 62.5029L99.8719 54.7639L94.644 48.489L95.271 38.8669L98.619 37.817L98.829 33.4249L103.221 33.218L104.449 28.5009L101.624 23.028L101.502 22.788L101.676 22.5909L104.747 19.1119L103.941 15.8939L103.888 15.6769L104.044 15.525L106.242 13.3229L105.723 11.082L99.43 11.4879L99.297 11.496L99.183 11.416L83.4269 0.427917L82.482 4.77094L82.421 5.05493L82.137 5.07697L62.975 6.76495L61.7599 11.8279L61.707 12.0579L61.481 12.1179L57.7469 13.0969L58.136 16.6099L58.1639 16.8469L57.96 16.9789L52.787 20.291L52.585 23.726L52.569 24.0139L52.285 24.0809L48.7419 24.913L42.407 30.192L42.275 30.306L42.105 30.2839L27.368 28.3619L27.27 28.348L27.193 28.2949L18.1429 21.9189L13.976 21.601L11.277 28.6949L11.186 28.9279L10.936 28.947L0.462952 29.6219L1.12 36.856L7.39398 48.004L7.56696 48.3149L7.27594 48.517L2.91699 51.5369L3.91998 58.4009Z" fill="#CDCDCD"/>
</svg>
