<svg width="124" height="99" viewBox="0 0 124 99" fill="none" xmlns="http://www.w3.org/2000/svg">
<path fill-rule="evenodd" clip-rule="evenodd" d="M88.437 12.9429L82.772 8.89194L71.453 15.39L71.233 15.5169L71.03 15.3699L61.515 8.39194L47.971 8.17993L47.851 8.17593L47.76 8.11594L38.833 2.16193L32.461 0.312927L26.522 4.81793L22.073 19.0139L21.975 19.325L21.656 19.2849L16.454 18.6579L12.441 21.269L11.617 25.5909L11.584 25.7709L11.427 25.8619L4.24799 29.9699L4.65201 33.4139L4.67099 33.575L4.56601 33.705L0.86499 38.2249L4.32999 41.8929L4.436 42.0069V42.1619V54.3149L31.196 67.049L31.281 67.0889L31.338 67.166L36.342 73.692L36.389 73.7549L36.411 73.8269L37.852 79.1889L45.599 78.9809L45.838 78.976L45.95 79.1839L48.673 84.2119L63.896 84.6379L64.299 84.6479L64.275 85.0479L63.63 95.788L65.472 98.179L70.384 94.0869L70.494 93.9929H70.632H74.765H75.158V93.9979L85.173 94.046L88.913 89.627L89.009 89.5089L89.157 89.4929L99.329 88.0869L99.436 88.0739L99.535 88.119L108.15 91.9089L115.135 88.9109L115.475 81.7899L115.485 81.6109L115.626 81.502L122.889 75.9649L123.807 72.5989L117.499 70.6089L117.41 70.5779L117.341 70.511L112.781 65.9519L112.687 65.8569L112.671 65.722L111.969 59.7579L111.948 59.5559L112.102 59.4189L120.046 52.5119L120.357 48.4829L115.115 47.8259L114.905 47.799L114.812 47.61L108.94 35.515L88.8 32.3909L88.468 32.343V32.0099V26.3969V26.261L88.556 26.1519L91.236 22.804L88.437 12.9429Z" fill="#EBEBEB"/>
</svg>
