<svg width="32" height="43" viewBox="0 0 32 43" fill="none" xmlns="http://www.w3.org/2000/svg">
<path fill-rule="evenodd" clip-rule="evenodd" d="M8.11497 0.632935L5.97997 2.59595L1.77197 7.45093L0.521973 11.3109L2.32397 16.8309L4.56796 19.7149L5.96896 21.0069L6.15598 21.1799L6.07297 21.424L4.64697 25.4799L4.63097 25.5299L4.60696 25.5649L2.65497 28.5439L10.666 42.0399L16.251 38.6979L16.339 38.6469L16.442 38.644L23.527 38.407L31.319 33.7099L29.689 29.1479L22.062 19.3759L18.291 17.7249L18.214 17.6929L18.158 17.6339L15.261 14.4939L15.043 14.2549L15.237 13.9959L17.362 11.1619L18.255 7.58795L16.485 5.81894L12.655 8.97495L12.374 9.20694L12.125 8.94394L8.49896 5.07895L8.40598 4.97595L8.39697 4.83694L8.11497 0.632935Z" fill="#CDCDCD"/>
</svg>
