<svg width="69" height="68" viewBox="0 0 69 68" fill="none" xmlns="http://www.w3.org/2000/svg">
<path fill-rule="evenodd" clip-rule="evenodd" d="M45.362 67.3569L52.431 65.0219L53.476 59.5859L59.543 56.2359L66.028 54.5609L68.361 53.8499L68.151 44.9569L64.175 44.1599L64.021 44.1279L63.931 43.9969L62.005 41.2159L61.939 41.1219L61.936 41.0099L61.744 35.7959L59.266 36.8589L59.18 36.894L59.087 36.8839L56.09 36.674L55.707 36.6469L55.729 36.2639L55.942 32.4109L55.949 32.2769L56.04 32.1729L59.151 28.6479V23.8179L52.288 17.1629L48.332 16.3289L48.189 16.299L48.102 16.1849L45.32 12.5439L45.25 12.4539L45.238 12.3419L44.833 7.24094L39.075 5.18494L38.931 5.13193L38.858 4.99094L36.438 0.153931L33.331 1.12494L33.249 1.14694L33.163 1.13794L27.124 0.332947L26.536 4.44595L26.51 4.62695L26.353 4.72095L20.635 8.21494L21.768 18.7199L21.795 18.9569L21.593 19.0889L15.111 23.3149L15.959 31.506L15.97 31.618L15.919 31.7189L13.303 36.95L13.204 37.1519L12.979 37.1649L8.32798 37.4559L8.15498 37.4659L8.02998 37.3409L5.91698 35.2289L0.435974 38.3619L3.10898 42.3719L3.20998 42.5159L3.16298 42.692L0.887978 50.9379L5.03497 56.7489L15.311 57.8589L16.369 54.9479L16.468 54.6689L16.766 54.6909L20.254 54.9829L20.54 55.0069L20.6 55.295L21.706 60.5419L25.653 61.0699L29.151 58.86L29.286 58.7749L29.438 58.8099L41.852 61.3759L42.03 61.4109L42.115 61.5649L45.362 67.3569Z" fill="#3CB371"/>
</svg>
