<svg width="95" height="87" viewBox="0 0 95 87" fill="none" xmlns="http://www.w3.org/2000/svg">
<path fill-rule="evenodd" clip-rule="evenodd" d="M11.9049 39.032L20.3889 44.511L23.7269 44.3349L23.9209 44.3239L24.0459 44.4789L28.0559 49.3979L28.1809 49.5549L28.1279 49.7449L26.1859 56.8109L31.3119 61.7069L45.1769 62.424L45.2749 62.4299L45.3559 62.4779L54.5309 68.0349L54.6209 68.0859L54.6719 68.1819L60.6599 79.1949L70.3279 84.8519L76.9359 83.2019L77.1519 83.1499L77.3059 83.304L80.1649 86.1649L84.7889 81.386L80.6779 77.5159L80.4859 77.3349L80.5819 77.0889L81.6189 74.5009L81.7209 74.2449L81.9969 74.256L88.0789 74.511L94.5249 70.2939V65.8289L90.0849 63.6079L89.7749 63.4529L89.8959 63.127L91.3069 59.364L87.1799 57.9879L84.4699 59.2189L84.0959 59.39L83.946 59.0039L80.6779 50.7069L72.6539 50.455L72.4839 50.4509L72.3719 50.321L67.2349 44.4149L62.368 41.3409L62.338 41.3189L62.3089 41.2959L57.6529 36.8969L57.644 36.8909L57.6279 36.8719L43.9169 21.3449L43.7969 21.2119L43.8209 21.0389L44.8559 13.2759L44.8709 13.1609L44.9489 13.0709L49.9969 7.30194L46.6719 6.19295L46.4009 6.10394V5.82594V0.52594L42.2819 0.574936L39.4999 3.23595L39.3819 3.35094L39.2169 3.34494L33.4309 3.08194L33.2759 3.07195L33.1649 2.95995L30.4499 0.113937L27.8539 0.0509338L24.0299 1.32895L17.8499 5.97495L13.8129 14.4559L13.6979 14.6979L13.4319 14.6749L6.70593 14.1559L2.95294 16.1619L0.278931 20.3069L3.09793 23.377L3.15594 23.4429L3.18494 23.528L4.36794 27.3499L4.38994 27.424L4.37994 27.5029L4.03294 30.8919L10.6239 30.8499L10.9749 30.8489L11.0119 31.1969L11.9049 39.032Z" fill="#FFC100"/>
</svg>
