<svg width="47" height="46" viewBox="0 0 47 46" fill="none" xmlns="http://www.w3.org/2000/svg">
<path fill-rule="evenodd" clip-rule="evenodd" d="M0.271973 29.502L2.01797 32.8229L1.71698 40.5299L7.04298 43.3749L7.06798 43.3879L10.918 45.864L14.482 43.3969L14.591 43.3199L14.724 43.33L20.126 43.614L25.795 40.1519L26.41 35.834L26.465 35.4579L26.846 35.506L33.183 36.3539L36.528 35.304L36.842 35.2109L36.991 35.5029L39.489 40.5029L45.119 42.5089L46.369 41.399L46.751 35.1149L43.13 32.3919L42.985 32.2829L42.972 32.1029L42.712 28.049L40.412 25.8739L36.903 23.3049L36.731 23.1779L36.744 22.9669L37.138 16.7899L30.125 11.3589L30.003 11.2599L29.979 11.1079L29.335 6.97095L26.675 5.70193L26.452 5.59494V5.35095V2.73694L25.388 0.839935L21.405 0.598938L20.702 2.24695L20.618 2.44196L20.407 2.47595L18.783 2.74796L18.559 2.78693L18.416 2.60895L17.315 1.26294H15.615L13.014 3.61993V8.06393V8.18793L12.939 8.29193L11.402 10.4249L12.721 11.4169L12.867 11.524L12.876 11.705L13.014 13.8749L13.04 14.308L12.607 14.2889L9.72498 14.1639L8.56698 16.1379L9.34998 20.0629L9.38998 20.2669L9.24598 20.4139L0.271973 29.502Z" fill="red"/>
</svg>
