<svg width="40" height="35" viewBox="0 0 40 35" fill="none" xmlns="http://www.w3.org/2000/svg">
<path fill-rule="evenodd" clip-rule="evenodd" d="M39.538 23.0469L34.482 18.2169L34.314 18.058L34.376 17.8319L36.327 10.7359L32.569 6.12494L29.302 6.29794L29.177 6.30396L29.075 6.23694L20.587 0.753937L14.068 7.09894L13.941 7.22095L13.771 7.20795L8.83197 6.86694L7.08897 16.455L7.97498 19.4669L8.06897 19.7919L7.76196 19.9299L1.44997 22.7839L0.839966 25.8309L1.16797 30.6549L4.44296 34.1519L8.26997 31.0009L8.54196 30.7759L8.78996 31.0249L9.74597 31.9819L17.167 31.1559L17.288 31.1429L17.392 31.1989L21.086 33.1629L27.796 29.0859L29.437 26.5049L29.549 26.334L29.75 26.3239L35.19 26.0889L39.538 23.0469Z" fill="#FFC100"/>
</svg>
