<svg width="45" height="39" viewBox="0 0 45 39" fill="none" xmlns="http://www.w3.org/2000/svg">
<path fill-rule="evenodd" clip-rule="evenodd" d="M0.0409546 28.1979L0.149948 32.9569L8.79495 37.6279L11.854 38.6459L14.0419 37.7099L14.554 34.726L12.897 33.8969L12.6649 33.7799L12.683 33.524L12.8009 31.8439L12.808 31.735L12.8719 31.6469L15.149 28.4099L15.25 28.2699L15.418 28.2499L20.931 27.532L20.9409 27.5269L24.295 27.1729L24.446 27.1549L24.5679 27.2449L28.1609 29.8829L28.17 29.886L28.1889 29.9049L33.27 34.3919L36.38 35.1709L38.837 33.7229L43.354 28.9689L43.3739 28.9449L43.3999 28.9229L44.515 28.0859L41.1759 23.9669L40.97 23.713L41.1799 23.4669L42.631 21.7929L42.315 18.2159L35.576 17.7569L35.392 17.748L35.2859 17.5939L31.438 12.1159L26.5959 11.8869L26.35 11.8739L26.254 11.6429L24.478 7.26495L19.188 0.958954L18.47 1.83994L17.5289 6.53995L17.513 6.61694L17.47 6.67993L16.272 8.47595L16.1069 8.72794L15.819 8.62695L7.70795 5.81094V14.2539V14.403L7.60895 14.5099L5.86795 16.4689L7.42395 19.4669L7.50296 19.6149L7.44696 19.7769L6.72595 21.817L6.69696 21.8979L6.62495 21.9659L0.0409546 28.1979Z" fill="#3CB371"/>
</svg>
