<svg width="159" height="215" viewBox="0 0 159 215" fill="none" xmlns="http://www.w3.org/2000/svg">
<path fill-rule="evenodd" clip-rule="evenodd" d="M128.893 18.6039L131.809 18.9259L132.347 16.9859L130.403 14.8249L128.031 15.5819L128.893 18.6039Z" fill="#CDCDCD"/>
<path fill-rule="evenodd" clip-rule="evenodd" d="M138.174 33.5979L141.626 34.8939L145.189 34.2449L143.676 28.9599L139.358 31.3309L138.174 33.5979Z" fill="#CDCDCD"/>
<path fill-rule="evenodd" clip-rule="evenodd" d="M146.316 36.2319L142.101 36.4799L140.006 44.0109L133.105 37.7349L131.221 44.2189L138.545 52.1679L138.965 59.0719L125.573 47.1469L125.158 39.6169L130.802 32.7139L131.641 21.6269L129.339 22.6739L126.62 30.2039L122.435 33.9709L118.042 35.2249L113.859 41.5009L114.068 58.0259L103.816 74.1339L104.446 83.9659H114.906L123.483 94.2159V104.048L117.414 111.371L119.089 114.717L123.902 117.438L114.906 119.528L112.396 110.114L119.089 98.4009L116.161 89.614L105.91 88.149L100.261 93.5899L99.635 105.931L90.219 115.554L81.642 118.693L75.786 124.969L56.123 112.836V106.976L69.3 113.042L76.206 110.326L87.293 103.213L94.824 88.149L93.569 79.9909L106.33 49.6589L107.792 44.4289L106.33 37.5249L114.696 29.5759L116.371 18.4889L109.885 9.91194L116.547 9.04195L115.569 0.970947L108.963 0.480942L108.476 6.35094L109.885 9.91194L105.701 8.23894L99.425 13.0509L91.894 22.6739L86.036 28.3199L77.249 30.4139L72.646 34.8049L77.249 40.8709L72.23 49.8689L65.327 51.9599L65.117 55.0979L71.185 61.3739L69.09 67.2309L70.14 70.9959L72.438 74.3439L64.699 81.455L62.189 77.4819L60.096 68.4859L51.926 55.377L47.248 59.274L49.997 64.1609L50.104 64.351L49.997 64.5419L44.266 74.7279L46.476 81.9949L46.53 82.1679L46.432 82.3179L42.879 87.8059L42.806 87.9209L42.676 87.9639L36.967 89.868L33.163 94.3059L33.054 94.433L32.885 94.4409L18.489 95.0819L11.162 101.133L11.058 101.22H10.92L6.207 101.295L5.78299 113.536L5.78 113.653L5.711 113.751L0.0780029 121.682L3.72699 129.389L17.6 130.437L17.717 130.447L17.81 130.519L24.433 135.646L24.577 135.758L24.584 135.944L24.791 142.614L27.129 144.758L43.014 145.604L43.189 145.616L43.296 145.753L48.21 151.946L48.291 152.045L48.295 152.173L48.715 162.304L51.418 165.836L51.503 165.948L51.5 166.084L51.296 172.732H61.792H61.941L62.052 172.836L71.619 181.55L84.802 187.293L84.916 187.343L84.979 187.446L89.847 195.484L98.445 200.728L107.18 201.561L114.323 196.31L114.581 196.114L114.819 196.335L121.321 202.421L128.001 202.214L128.213 202.204L128.331 202.385L133.352 209.703L135.944 209.902L136.089 209.916L136.19 210.019L141.006 214.834L150.968 202.179L151.595 194.018L151.604 193.906L151.667 193.819L158.259 184.713L157.039 177.386L149.521 171.746L149.329 171.602L149.369 171.368L151.253 160.706L146.255 153.832L146.167 153.712L146.183 153.565L147.758 138.75L141.487 130.597L141.36 130.431L141.425 130.237L143.926 122.733L141.437 116.818L141.264 116.405L141.694 116.289L149.784 114.111L153.207 105.419L151.414 95.1669L142.953 93.0529L142.82 93.019L142.737 92.9099L134.964 82.6499L134.852 82.5029L134.897 82.3219L136.452 76.1019L136.498 75.9189L136.673 75.8419L148.311 70.6339L149.478 65.976L144.561 55.5309L144.508 55.42L144.532 55.2969L145.772 48.4569L145.825 48.1869L146.093 48.1409L151.185 47.2929L146.426 37.1869L146.399 37.1279L146.393 37.0559L146.316 36.2319Z" fill="#DFDFDF"/>
<path fill-rule="evenodd" clip-rule="evenodd" d="M149.828 27.0209L153.391 31.6599L155.873 30.5819L155.115 24.1049L152.633 22.8119L149.828 27.0209Z" fill="#CDCDCD"/>
</svg>
