<svg width="135" height="170" viewBox="0 0 135 170" fill="none" xmlns="http://www.w3.org/2000/svg">
<path fill-rule="evenodd" clip-rule="evenodd" d="M0.429993 159.958L3.93298 160.107L7.48895 166.805L34.892 169.311L53.3 158.226L59.1609 158.018L61.043 151.952L70.035 143.583L82.588 142.953L86.351 146.509L91.582 141.697L113.759 145.258L116.896 136.679L124.426 131.448L121.288 123.71L124.638 102.79L130.285 97.14L126.518 87.098L118.569 86.262L124.218 75.8029L134.183 68.8889L125.167 55.3649L125.018 55.1439L125.171 54.9269L128.213 50.616L122.827 47.538L122.652 47.434L122.633 47.2269L121.846 36.7169L116.53 37.981L116.246 38.049L116.102 37.7919L112.73 31.8189L105.659 35.7469L105.403 35.8879L105.196 35.6799L100.813 31.2969L100.579 31.0629L100.768 30.7919L103.28 27.282L94.5649 21.4709L94.483 21.4209L94.438 21.3319L83.308 0.702942L74.351 0.968933L71.051 3.50693L71.577 12.9869L77.9999 17.541L78.171 17.6629L78.167 17.8699L77.891 26.0979L77.883 26.2919L77.724 26.4039L71.418 30.7919L71.2859 30.8779L71.137 30.8539L60.6819 29.2489L57.728 33.433L60.767 36.215L60.839 36.283L60.873 36.382L66.012 51.788L72.088 52.8459L72.1949 52.8649L72.282 52.942L78.043 58.1489L78.155 58.2559L78.17 58.4099L78.719 66.088L78.7369 66.3859L78.4579 66.4849L69.293 69.718L65.796 77.7889L65.756 77.8829L65.679 77.9459L55.412 85.7789V91.14L60.175 94.312L60.365 94.4379L60.345 94.6689L59.796 100.98L59.7859 101.096L59.711 101.192L55.047 106.949L54.989 107.025L54.8929 107.061L48.98 109.482L46.851 112.939L46.749 113.109L46.55 113.123L39.5959 113.659L28.735 128.052L28.5959 128.231L28.37 128.199L22.506 127.403L16.062 132.773L15.949 132.869H15.81H5.659L7.68195 138.935L7.76697 139.192L7.56 139.358L2.11694 143.759L7.87396 150.038L8.21198 150.407L7.76697 150.646L2.159 153.58L0.429993 159.958Z" fill="#3CB371"/>
</svg>
